<svg id="Layer_1" data-name="Layer 1" xmlns="http://www.w3.org/2000/svg" viewBox="0 0 747.97 440.3"><title>Untitled-2</title><path d="M745.34,383.74l-0.06-.18c-1.1-3.2-3.65-10.63-11.59-14.08h-0.1c-0.09-.57-0.2-1.15-0.34-1.72a26.67,26.67,0,0,0-2-5.34l-0.09-.19-0.12-.32a30.4,30.4,0,0,0-1.86-4c-0.22-.43-0.52-1-0.91-1.68,2.61-7.25-.14-13.47-1.2-15.87l-0.28-.66c-1.16-2.86-3.87-9.53-11.19-12.88-6.73-3.11-12.94-1-15.3-.13l-0.17.06-0.46.16c-1.52.55-2.82,1.12-4,1.62l-1.3.56-16.27,6.78-1.37.48a43.71,43.71,0,0,0-7.49,3.13c8.29-9.64,8.82-22.27,10-31.51,0.41-2.46,2.63-18.61,4.36-28.26,0.15-1.18.3-2.2,0.47-3.27,0.55-3.7,8.13-75,8.31-76.63,0.64-8.3,1.54-25.06,7.28-31a16.35,16.35,0,0,1,3.32-1.08,22.5,22.5,0,0,1,4-.32c0.85,0,1.66,0,2.43.05,0.93,0,1.82.07,2.69,0.07a23,23,0,0,0,13-3.62h0a12.75,12.75,0,0,0,5.33-4.86,20.17,20.17,0,0,0,2.16-5,13.46,13.46,0,0,0,0-6.79v-0.14a18.8,18.8,0,0,0-2.17-5.46,19.56,19.56,0,0,0-3.2-4.19,18.57,18.57,0,0,0-9.94-4.77h-0.22l-1.8-.34-1.33-.31-0.31-.11c-0.07-.21-0.14-0.42-0.22-0.64h0v-0.19a2.31,2.31,0,0,1,.15-0.5l0-.19a2.77,2.77,0,0,1,.11-0.48h0l0.12-.2,0.07-.13a12.17,12.17,0,0,0,1.52-1.92,13.57,13.57,0,0,0,.92-1.2h0l0.31-.3,0.77-.55,0.11-.08c0.67-.53,1.36-1.14,2.12-1.86a14.8,14.8,0,0,0,2.18-2l0.3-.28c0.26-.24.53-0.48,0.78-0.73,0.48-.45.86-0.86,1.14-1.16l0.21-.23h0l0.53-.45,0.89-.78,0.18-.17c0.24-.22.44-0.43,0.61-0.61a12.46,12.46,0,0,0,1.87-1.9,17.11,17.11,0,0,0,3.23-5.35,16.87,16.87,0,0,0-.81-13.73,15.27,15.27,0,0,0-12.6-8.14H717.3a22.38,22.38,0,0,0-8.52,1.67,22.94,22.94,0,0,0-4.68,2.69l-0.3.2-0.75.51c-0.21-.26-0.43-0.51-0.67-0.77a14.25,14.25,0,0,0-10.79-4.28h-1.51a14.39,14.39,0,0,0-2.68.41,11.22,11.22,0,0,0-2.28.57l-0.32.13a13.28,13.28,0,0,0-2,1,13,13,0,0,0-1.31.8,11.77,11.77,0,0,0-2.06,1.49A76.61,76.61,0,0,0,607.7,38.33c-1.58-2-3.29-4.13-5.08-6.46-3.3-4.29-7.55-11.4-12.8-16-18.57-16.12-89.08-33-143.16,20.56-28.11,27.82-39.31,55.86-43.6,76.38a182,182,0,0,0-10-16.62l-0.13-.34c-7.12-10.21-17.22-14.22-25.33-17.44-1.33-.53-2.59-1-3.79-1.54-6.31-2.69-12.92-2.58-19.32-2.47h-11a49.21,49.21,0,0,0-11.16,1.41,14.65,14.65,0,0,0-1.43.41l-1.47.48a45.58,45.58,0,0,0-10.3,4.38l-0.5.31c-0.57.37-1.35,0.83-2.18,1.32-1.55.91-3.32,2-5.15,3.24a21.62,21.62,0,0,0-3.53-5.14c-5.58-6.07-13.09-6.52-16.71-6.74h-1c-2.47-.12-4.77-0.08-6.8,0H239.73c-0.75,0-2.07-.09-3.34-0.18-7.22-.51-19.28-1.36-28.17,6.89a31.21,31.21,0,0,0-2.65,2.74c-6.42-5-11.27-6.11-16.83-7.39L188.37,76a115.25,115.25,0,0,0-12-1.61q-0.77-.07-1.54-0.07h-9.9c-3.91,0-7.82-.1-12-0.2s-8.45-.21-12.78-0.21h-1.21a46.8,46.8,0,0,0-10.51.77A20.33,20.33,0,0,0,113,88.65c-6-5.12-12.87-7.86-18.68-10.17-1.33-.53-2.59-1-3.79-1.54-6.31-2.69-12.92-2.58-19.32-2.47h-11a49.21,49.21,0,0,0-11.08,1.39,14.65,14.65,0,0,0-1.43.41l-1.47.48a45.58,45.58,0,0,0-10.3,4.37l-0.5.31c-0.57.37-1.35,0.83-2.18,1.32a52.28,52.28,0,0,0-8.76,6.08l-0.2.18C15.23,97.37,8.37,108.7,3.93,122.67c-4.24,11-5,23-2.52,37.72,1.18,7,3.72,13.11,6.21,18.73l0.11,0.24c2.95,6.35,7.21,10.9,11.38,14.88l0.32,0.3c3.75,3.39,8.22,7.23,13.85,9.83a65.08,65.08,0,0,0,8.88,3.3,83.56,83.56,0,0,0,19.7,3.63c2.47,0.19,4.84.29,7.23,0.29A95.54,95.54,0,0,0,79.76,211h0.18c9.73-1.19,17.45-3.85,23.6-8.14h0c0.28-.17,1-0.55,1.58-0.83a36.23,36.23,0,0,0,7.56-4.8l0.3-.27a21.63,21.63,0,0,0,3.34,6.31c2.45,3.23,7.94,8.28,18.36,8.28h0.54a24,24,0,0,0-4.68,10.11,36.19,36.19,0,0,0-.58,10.26v0.29c0.13,2.79.15,17.72,0.17,30.92,0.06,35.92.16,45.85,0.54,49.36l0.08,0.81c0.43,4.59,1.46,15.32,12.86,20.74a30.34,30.34,0,0,0,13,2.87c2.85,0,5.52-.2,7.89-0.39,7.51-.6,27.12-4.24,30-5.2l0.62-.2c7.09-2.35,11.86-4.14,15.18-6.36h0.1l7.27-5h0a84.91,84.91,0,0,0,9.6-8.63c1.55,2,14.83,14.94,32.12,16.57a40,40,0,0,0-13.67,6.91c-6,4.49-9.4,11.21-11.46,15.32l-0.41.82-0.07.15c-5.41,10.89-4.57,27.15-2.91,33.44q0.16,0.6.36,1.19c0.24,0.7.48,1.42,0.71,2.15a54.08,54.08,0,0,0,6.2,13.83c4.5,8,11.87,13.57,21.38,16.24a16.06,16.06,0,0,0,3.25.56q2.81,0.19,5.45.19c10.38,0,18.82-2.21,25.63-6.69a19.32,19.32,0,0,0,10,2.5q0.92,0,1.91-.07c1.29,0,2.46-.11,3.41-0.18l1.09-.08h0.64c2.86,0,8.79,0,14.29-3.75l0.26-.19a19.22,19.22,0,0,0,1.93-1.58,21.41,21.41,0,0,0,10.26,3.75h0.27a40.94,40.94,0,0,0,7.55-.14c0.48,0,1-.09,1.43-0.12l2.63-.15a22.56,22.56,0,0,0,5.54-1,26,26,0,0,0,5.57.78l4.92,0.22a28.53,28.53,0,0,0,9.87-1h0.13a20.7,20.7,0,0,0,8.9-5.46,20.3,20.3,0,0,0,15.21,8l2.87,0.13c0.87,0,1.73.06,2.6,0.07h1.8q1.19,0.09,2.29.09a24.74,24.74,0,0,0,4.13-.34c0.5,0.22,1,.42,1.55.61a32.78,32.78,0,0,0,5.78,1.36l0.51,0.08,0.57,0.11c0.92,0.16,1.82.34,2.72,0.51,1.09,0.21,2.17.42,3.23,0.61l1.45,0.23,0.35,0q0.52,0.13,1,.22L446.65,420l0.56,0.14a31.74,31.74,0,0,0,7.76,1.12h0.61a7.79,7.79,0,0,0,1.28-.07,21.26,21.26,0,0,0,4.31,2.19,32.89,32.89,0,0,0,5.75,1.5l0.5,0.09L468,425c0.92,0.18,1.82.38,2.71,0.58,1.08,0.24,2.15.47,3.23,0.69l1.43,0.26,0.35,0.06q0.51,0.14,1,.24L492.81,430l0.56,0.15a30.89,30.89,0,0,0,8.27,1.32h0.23a21.32,21.32,0,0,0,4.76-.52,26.09,26.09,0,0,0,10,3l0.78,0.1,0.53,0.08,1.31,0.16a36.32,36.32,0,0,1,4.07.62,16.05,16.05,0,0,0,2,.39l6.41,0.8c3.37,0.42,6.63.74,9.77,1h0.08l4.7,0.44h0a26.45,26.45,0,0,0,5,.53,18.61,18.61,0,0,0,7.72-1.61c3.23,2.19,7.7,3.69,13.91,3.57h6A21.06,21.06,0,0,0,592,436.61q0.63-.44,1.23-0.93A16.38,16.38,0,0,0,597,438a22.55,22.55,0,0,0,10.48,2.29h8.11a19.14,19.14,0,0,0,17.58-9.34q0.84,0.51,1.7,1l0.47,0.24a33.84,33.84,0,0,0,8.13,2.86,27.27,27.27,0,0,0,7.51,1,56.8,56.8,0,0,0,9.42-.93c11.19-1.85,18.83-7,23.86-12.86a18.72,18.72,0,0,0,6.76,3.08h0.21a22,22,0,0,0,4.78.53,25.93,25.93,0,0,0,10.46-2.42l0.72-.3,0.5-.2,1.22-.51a36.46,36.46,0,0,1,3.85-1.48,16,16,0,0,0,1.94-.67l6-2.49h0c3.12-1.3,6.09-2.63,9-3.93h0.07l4.31-2h0c2.46-.85,9-3.12,12.28-10.22a16.07,16.07,0,0,0,1.19-3.67l0.11-.57q0.15-.77.23-1.56A21.55,21.55,0,0,0,745.34,383.74Z" fill="#231f20"/><path d="M720.47,149.12a9,9,0,0,0-1-2.43,9.9,9.9,0,0,0-1.56-2.08c-1.42-1.39-3.23-1.73-5.1-2.12-1-.21-2.1-0.37-3.16-0.58a28.6,28.6,0,0,1-2.79-.87,3.92,3.92,0,0,1-1.48-.76c-0.4-.38-0.73-0.82-1.12-1.2a10.23,10.23,0,0,1-1.11-1,5.92,5.92,0,0,1-.72-1.37c-0.38-.91-0.68-1.84-1-2.77-0.16-.48-0.32-0.95-0.43-1.41a10.54,10.54,0,0,1,.13-1.77,16.29,16.29,0,0,1,.21-1.66,4.87,4.87,0,0,1,.32-1.12c0.09-.35.14-0.7,0.23-1.06a9,9,0,0,1,.92-2A9.8,9.8,0,0,1,704,123.1a7.09,7.09,0,0,0,.77-0.85,2.79,2.79,0,0,1,.48-0.74,17.47,17.47,0,0,0,1.25-1.59c0.4-.47.88-0.86,1.3-1.29a13.3,13.3,0,0,1,1.35-1,19.07,19.07,0,0,0,1.54-1.38c0.47-.46,1.07-0.79,1.5-1.28s1.08-1,1.62-1.55,1-1.07,1.5-1.54,1-.86,1.49-1.3a7.23,7.23,0,0,1,1-1,4.27,4.27,0,0,0,.8-0.84,7.14,7.14,0,0,0,1.36-2.23,6.72,6.72,0,0,0-.24-5.42,5.2,5.2,0,0,0-4.15-2.88,12.48,12.48,0,0,0-5.15.9,12.88,12.88,0,0,0-2.62,1.55,10.69,10.69,0,0,0-2.22,1.73c-0.38.46-.68,1-1.07,1.44s-0.67.73-1,1.14a11.34,11.34,0,0,0-1.59,2.16,9.19,9.19,0,0,1-1.47,2.43c-0.6.68-1.16,1.37-1.74,2.07a10.55,10.55,0,0,1-2.36,2.23,4.2,4.2,0,0,1-1.38.7,6.24,6.24,0,0,0-1.06.26c-1,.32-2-0.95-2.14-1.77a4.74,4.74,0,0,1,.19-2.84c0.38-1,.66-1.91,1-2.88a23.72,23.72,0,0,0,.94-2.72,4.89,4.89,0,0,0,.11-2.86,7.43,7.43,0,0,0-1.2-2.41c-1.08-1.16-3-1.19-4.4-1.1a3.92,3.92,0,0,0-1.15.23,8.36,8.36,0,0,0-.92.15c-0.29.15-.71,0.42-1.09,0.6s-0.58.45-.91,0.59a2.93,2.93,0,0,0-1,.89,10.48,10.48,0,0,1-1,1c-0.65.67-1.25,1.33-1.84,2.06a8.64,8.64,0,0,0-1.38,2.58c-0.28.85-.6,1.66-0.92,2.5s-0.63,1.93-1,2.89a2.34,2.34,0,0,1-.11.39,15.77,15.77,0,0,0-1.66,1.21,15.76,15.76,0,0,1-2.62,1.63c-1.72.79-3.54,1.35-5.31,2-3.64,1.4-7.07,3.21-10.88,4.1-9.85,2.34-19.78,4.54-29.54,7.26-5,1.37-10,2.63-14.92,3.95a58.69,58.69,0,0,1-7.32,1.61c-2.46.32-5,.46-7.42,0.55-1.31,0-7.16.08-8.49,0.14l-0.88.06V141a53.43,53.43,0,0,1-7.17-.58,69.3,69.3,0,0,1-26.37-10.39c-2.1-1.33-4.36-2.44-6.37-3.94s-3.87-3.27-6-4.69,2.29-4.41.14-5.84-3.86-5.76-4.18-7.09C534,90.93,516.73,88,515.47,87.68c-9.18-2.92-3.13,12.16-23,3.86a5.22,5.22,0,0,0-5.43.86c-1.17,1-1.07,3.33-.39,4.62a14.62,14.62,0,0,0,3.84,4.31,18.82,18.82,0,0,1,4,4.47,12.14,12.14,0,0,1,1.6,5.9,11.71,11.71,0,0,1-.26,1.87c-0.07.52-.08,1-0.18,1.57a6.14,6.14,0,0,1-1.38,2.85,5.11,5.11,0,0,1-1.25,1,6.66,6.66,0,0,0-1.06.63,8.11,8.11,0,0,0-1,.33,6.2,6.2,0,0,1-1.57.2,16.14,16.14,0,0,1-2,.11,15.81,15.81,0,0,1-3.85-.26l-0.42-.08c0.61,0.29,1.29.64,2,1,7.49,4,21.32,13.46,28.54,31.38,1.46,3.63,2.52,10.57,2.92,17.81,0.63,1,1.28,2,2,3.08,2.65,4.34,4,9.6,4.82,14.86,0.31,3.79.66,7.54,1,11.39,0.19,3.86.32,7.29,0.71,9.8a18.48,18.48,0,0,1,5.13,1.66A13.5,13.5,0,0,1,537.81,221c1.23,8-4.9,13.77-7.85,16.54l-0.4.39c-0.77.74-1.52,1.41-2.25,2.05,0.31,7.85.5,16.64,0.5,26.73,0.21,13.58,1,28,1.75,37.74L531,306l0.54,0.55c2,2,5.28,5.32,6.3,10.45a13.34,13.34,0,0,1-.79,8.25c3.26,4.06,7.18,7.15,10.76,8.46,13,4.73,20.29,7.13,33.83,9,17,2.32,21.24,3.09,38.14.43,8.22-1.3,15.07-3.64,23.14-5.75,18.26-4.81,21.49-18.32,25.21-37.59,0.37-2.09,9.67-74.18,11.17-99.16a170.64,170.64,0,0,1,2.54-19.83c3.93-16.33,11.38-22.07,17.22-23.1,8.47-1.49,12.79,1.34,18.61-2.46a5,5,0,0,0,2-1.44,10.38,10.38,0,0,0,1.06-2.46A4.81,4.81,0,0,0,720.47,149.12Z" fill="#fff"/><path d="M499.41,77.95c-6,.63-5,9.92.93,9.29S505.34,77.33,499.41,77.95Z" fill="#fff"/><path d="M600.93,48.62s-4.37-5.11-10-11.26c-1.78-1.94-12.48-13.23-14.42-15.25l-18.89,5.5-0.51,22.22s8.08-.42,11.11,3.23l4.34,5.26Z" fill="#fff"/><path d="M683.46,139.34a4.9,4.9,0,0,0-.53-2.29v-0.74a4.73,4.73,0,0,0,.52-2.31,4.81,4.81,0,0,0-.67-2.27V131a4.78,4.78,0,0,0,.34-2.34,4.72,4.72,0,0,0-.83-2.18,4.93,4.93,0,0,0-.11-0.77,4.55,4.55,0,0,0,.18-2.34,4.73,4.73,0,0,0-1-2.12c0-.27-0.11-0.53-0.16-0.79a4.71,4.71,0,0,0-1.08-4.37c-0.08-.26-0.16-0.53-0.23-0.8A4.65,4.65,0,0,0,678.5,111c-0.09-.27-0.19-0.54-0.29-0.8a4.69,4.69,0,0,0-.32-2.3,4.77,4.77,0,0,0-1.37-1.87l-0.33-.77a4.71,4.71,0,0,0-2-4l-0.39-.72a4.63,4.63,0,0,0-2.25-3.89c-0.14-.24-0.28-0.46-0.43-0.7a4.89,4.89,0,0,0-.78-2.19,4.77,4.77,0,0,0-1.74-1.53l-0.49-.66a4.75,4.75,0,0,0-.94-2.14A4.81,4.81,0,0,0,665.32,88l-0.51-.59a4.79,4.79,0,0,0-1.08-2.07,5,5,0,0,0-1.9-1.3c-0.18-.2-0.38-0.39-0.58-0.58A4.7,4.7,0,0,0,658,80.33c-0.2-.19-0.41-0.37-0.61-0.54A4.56,4.56,0,0,0,656,77.9a4.77,4.77,0,0,0-2.06-1l-0.68-.52a4.74,4.74,0,0,0-1.48-1.78,4.88,4.88,0,0,0-2.11-.84l-0.75-.5a4.63,4.63,0,0,0-1.59-1.65,4.8,4.8,0,0,0-2.17-.69c-0.26-.17-0.53-0.31-0.78-0.46a4.9,4.9,0,0,0-1.69-1.51,4.84,4.84,0,0,0-2.22-.57l-0.82-.4a4.74,4.74,0,0,0-1.75-1.44,4.9,4.9,0,0,0-2-.41h-0.26c-0.28-.13-0.57-0.25-0.86-0.36a4.7,4.7,0,0,0-1.88-1.23,5,5,0,0,0-1.66-.29,4.31,4.31,0,0,0-.58,0l-0.91-.3a4.94,4.94,0,0,0-2-1.11,5,5,0,0,0-1.33-.18,4.3,4.3,0,0,0-.91.1l-0.92-.24a4.76,4.76,0,0,0-2-1,4.18,4.18,0,0,0-1-.1,5.26,5.26,0,0,0-1.27.16l-0.91-.16a4.75,4.75,0,0,0-2.09-.84,4.61,4.61,0,0,0-2.24.23l-0.93-.09A4.83,4.83,0,0,0,612,60a4.67,4.67,0,0,0-2.21.4h-0.93a4.72,4.72,0,0,0-4.43,0h-0.92a4.64,4.64,0,0,0-1.87-.4h-0.34a5,5,0,0,0-2.16.7l-0.92.09a4.71,4.71,0,0,0-1.58-.27,5,5,0,0,0-.67,0,4.88,4.88,0,0,0-2.1.84l-1,.27a5.27,5.27,0,0,0-1.26-.16,4.22,4.22,0,0,0-1,.12,4.82,4.82,0,0,0-2,1l-0.91.23a4.31,4.31,0,0,0-.92-0.09,5.17,5.17,0,0,0-1.34.18,5.07,5.07,0,0,0-2,1.12l-0.9.3a3.05,3.05,0,0,0-.59,0,4.63,4.63,0,0,0-1.66.3,4.68,4.68,0,0,0-1.87,1.24c-0.3.11-.58,0.22-0.86,0.35h-0.26A4.74,4.74,0,0,0,573.69,68l-0.86.42a4.78,4.78,0,0,0-2.22.56,4.9,4.9,0,0,0-1.68,1.43c-0.26.15-.54,0.3-0.77,0.46a4.7,4.7,0,0,0-2.19.71,4.89,4.89,0,0,0-1.56,1.63l-0.76.5a4.79,4.79,0,0,0-2.12.86,4.74,4.74,0,0,0-1.47,1.77l-0.69.54a4.73,4.73,0,0,0-2.06,1,4.84,4.84,0,0,0-1.38,1.87c-0.19.19-.4,0.35-0.6,0.54a4.9,4.9,0,0,0-2,1.17,5,5,0,0,0-1.22,2c-0.19.19-.38,0.38-0.56,0.58a4.91,4.91,0,0,0-1.93,1.29,4.76,4.76,0,0,0-1.08,2.07c-0.17.19-.35,0.39-0.51,0.6a4.86,4.86,0,0,0-1.85,1.44,4.92,4.92,0,0,0-.92,2.11l-0.49.69A4.67,4.67,0,0,0,543,93.8a5,5,0,0,0-.79,2.2c-0.15.22-.29,0.46-0.44,0.7a4.72,4.72,0,0,0-1.62,1.65,4.83,4.83,0,0,0-.62,2.24l-0.38.71a4.75,4.75,0,0,0-2,4c-0.11.27-.22,0.51-0.34,0.77a4.73,4.73,0,0,0-1.36,1.87,4.83,4.83,0,0,0-.32,2.3c-0.1.25-.2,0.53-0.29,0.78a4.76,4.76,0,0,0-1.38,4.27c-0.08.27-.16,0.53-0.23,0.78a4.75,4.75,0,0,0-1.07,4.38c-0.06.26-.12,0.53-0.17,0.78a4.78,4.78,0,0,0-1,2.11,5,5,0,0,0,.17,2.36,4.7,4.7,0,0,1-.1.74,4.92,4.92,0,0,0-.82,2.22,4.8,4.8,0,0,0,.36,2.33,3,3,0,0,1-.06.73,4.77,4.77,0,0,0-.15,4.6V137a4.74,4.74,0,0,0,.16,4.6v0.73a4.8,4.8,0,0,0-.34,2.33,4.73,4.73,0,0,0,.82,2.22,4.55,4.55,0,0,0,.1.74A4.82,4.82,0,0,0,531,150a4.72,4.72,0,0,0,1,2.11c0.06,0.27.12,0.53,0.17,0.79a4.85,4.85,0,0,0,0,2.33,4.72,4.72,0,0,0,1.09,2c0.07,0.26.15,0.53,0.24,0.8a4.57,4.57,0,0,0,.15,2.32,4.79,4.79,0,0,0,1.23,1.94l0.29,0.8a4.75,4.75,0,0,0,1.68,4.16l0.34,0.77a4.74,4.74,0,0,0,.48,2.26,4.91,4.91,0,0,0,1.51,1.79l0.38,0.71a4.73,4.73,0,0,0,2.26,3.9c0.15,0.21.29,0.45,0.43,0.68a4.84,4.84,0,0,0,.8,2.19,4.74,4.74,0,0,0,1.75,1.53c0.14,0.22.3,0.44,0.47,0.66a4.84,4.84,0,0,0,.93,2.13,4.92,4.92,0,0,0,1.85,1.44l0.51,0.59a4.75,4.75,0,0,0,3,3.36l0.57,0.58a4.69,4.69,0,0,0,3.25,3.15l0.59,0.54a4.75,4.75,0,0,0,1.37,1.89,5,5,0,0,0,2.06,1l0.67,0.52a4.68,4.68,0,0,0,1.49,1.78,4.86,4.86,0,0,0,2.12.85c0.24,0.16.48,0.34,0.73,0.49a4.77,4.77,0,0,0,1.59,1.66,5.2,5.2,0,0,0,2.2.72l0.74,0.5a4.6,4.6,0,0,0,1.69,1.51,4.86,4.86,0,0,0,2.31.59l0.81,0.39a4.77,4.77,0,0,0,1.79,1.39,4.82,4.82,0,0,0,2,.43h0.28l0.83,0.35a4.83,4.83,0,0,0,3.55,1.54,4.5,4.5,0,0,0,.58,0l0.89,0.28a4.7,4.7,0,0,0,2,1.12,5.11,5.11,0,0,0,1.34.19,4.09,4.09,0,0,0,.91-0.1l0.91,0.22a4.74,4.74,0,0,0,2,1,5.3,5.3,0,0,0,1,.11,5.51,5.51,0,0,0,1.27-.17c0.29,0.06.59,0.1,0.89,0.15a4.77,4.77,0,0,0,2.1.85,5.38,5.38,0,0,0,.68,0,4.63,4.63,0,0,0,1.59-.29l0.91,0.1a4.8,4.8,0,0,0,2.17.69h0.33a4.69,4.69,0,0,0,1.89-.39h0.92a4.84,4.84,0,0,0,2.21.55h0a4.9,4.9,0,0,0,2.22-.55h0.91a4.64,4.64,0,0,0,1.88.4h0.35a4.73,4.73,0,0,0,2.16-.69l0.91-.1a4.74,4.74,0,0,0,1.57.29,4.27,4.27,0,0,0,.69-0.06,4.81,4.81,0,0,0,2.09-.85l0.9-.15a4.94,4.94,0,0,0,1.27.18,4.37,4.37,0,0,0,1-.12,4.69,4.69,0,0,0,2-1l0.92-.22a5.17,5.17,0,0,0,.9.09,4.69,4.69,0,0,0,3.3-1.3l0.89-.3a3.07,3.07,0,0,0,.59.06,5,5,0,0,0,1.67-.3,4.92,4.92,0,0,0,1.87-1.25l0.85-.35h0.21a4.79,4.79,0,0,0,3.76-1.8l0.82-.4a4.9,4.9,0,0,0,2.23-.56A4.75,4.75,0,0,0,644.4,203l0.79-.47a4.76,4.76,0,0,0,3.77-2.36l0.74-.51a4.62,4.62,0,0,0,2.11-.84,4.73,4.73,0,0,0,1.48-1.79l0.69-.53a4.65,4.65,0,0,0,2.07-1,4.72,4.72,0,0,0,1.33-1.87L658,193a4.63,4.63,0,0,0,2-1.17,4.71,4.71,0,0,0,1.22-2l0.57-.57a5,5,0,0,0,1.92-1.3,4.83,4.83,0,0,0,1.08-2.06l0.51-.6a4.75,4.75,0,0,0,2.79-3.58c0.17-.21.32-0.43,0.48-0.65a4.72,4.72,0,0,0,1.74-1.56,5,5,0,0,0,.78-2.18l0.44-.7a4.91,4.91,0,0,0,1.62-1.66,5,5,0,0,0,.63-2.23c0.13-.23.26-0.48,0.38-0.71a4.86,4.86,0,0,0,1.51-1.79,4.93,4.93,0,0,0,.47-2.25l0.33-.77a4.78,4.78,0,0,0,1.68-4.16c0.1-.27.21-0.54,0.29-0.8a4.69,4.69,0,0,0,1.24-1.95,4.91,4.91,0,0,0,.25-2.31c0.08-.28.16-0.55,0.23-0.81a4.9,4.9,0,0,0,1.1-2,4.77,4.77,0,0,0,0-2.32,4.61,4.61,0,0,1,.16-0.79,4.65,4.65,0,0,0,1-2.12,4.85,4.85,0,0,0-.19-2.35,4.91,4.91,0,0,1,.11-0.74,4.74,4.74,0,0,0,.47-4.55,3.59,3.59,0,0,1,0-.73,5,5,0,0,0,.67-2.27" fill="#231f20"/><path d="M683.45,116.54a4.86,4.86,0,0,0-.52-2.31V113.5a4.84,4.84,0,0,0,.52-2.32,5,5,0,0,0-.67-2.28,3.59,3.59,0,0,0,0-.73,4.8,4.8,0,0,0,.34-2.34,4.88,4.88,0,0,0-.82-2.19,5,5,0,0,0-.11-0.76,4.79,4.79,0,0,0,.19-2.35,4.88,4.88,0,0,0-1-2.11c0-.26-0.11-0.52-0.16-0.79a4.74,4.74,0,0,0-1.08-4.36l-0.16-.8a4.64,4.64,0,0,0-1.38-4.27l-0.29-.8a4.9,4.9,0,0,0-.33-2.35,5,5,0,0,0-1.37-1.86c-0.12-.25-0.22-0.5-0.33-0.76a4.77,4.77,0,0,0-2-4c-0.14-.23-0.27-0.48-0.39-0.72a4.67,4.67,0,0,0-.62-2.22,5,5,0,0,0-1.63-1.68l-0.43-.68a4.77,4.77,0,0,0-.79-2.19,4.91,4.91,0,0,0-1.73-1.53l-0.48-.67a4.7,4.7,0,0,0-.94-2.13,4.86,4.86,0,0,0-1.85-1.43l-0.51-.6a4.6,4.6,0,0,0-3-3.35c-0.19-.2-0.37-0.4-0.57-0.59a5,5,0,0,0-1.23-2,4.9,4.9,0,0,0-2-1.15c-0.2-.19-0.4-0.36-0.61-0.54A4.7,4.7,0,0,0,656,55a4.84,4.84,0,0,0-2.1-1l-0.68-.54a4.79,4.79,0,0,0-1.49-1.77,4.72,4.72,0,0,0-2.12-.84c-0.24-.18-0.5-0.34-0.75-0.52a4.57,4.57,0,0,0-1.58-1.64,4.84,4.84,0,0,0-2.16-.71c-0.26-.15-0.52-0.31-0.78-0.44a4.7,4.7,0,0,0-3.91-2.08l-0.82-.41a4.87,4.87,0,0,0-1.71-1.36,5,5,0,0,0-2-.41h-0.27L634.79,43a4.68,4.68,0,0,0-1.86-1.25,4.85,4.85,0,0,0-1.65-.29,3.27,3.27,0,0,0-.58,0l-0.91-.3a5.15,5.15,0,0,0-2-1.12,4.68,4.68,0,0,0-1.32-.18,4.35,4.35,0,0,0-.91.1l-0.93-.23a4.54,4.54,0,0,0-2-1,5,5,0,0,0-1-.11,5.09,5.09,0,0,0-1.26.17l-0.91-.15a5,5,0,0,0-2.1-.84,4.6,4.6,0,0,0-2.25.24l-0.92-.1a4.63,4.63,0,0,0-4.39-.3h-0.92a4.87,4.87,0,0,0-2.22-.55,5.08,5.08,0,0,0-2.21.55h-0.92a4.59,4.59,0,0,0-1.88-.4H601.3a4.64,4.64,0,0,0-2.15.7l-0.92.1a4.67,4.67,0,0,0-1.58-.28,5.68,5.68,0,0,0-.68,0,5,5,0,0,0-2.1.84l-0.91.17a4.25,4.25,0,0,0-1.26-.19,4.43,4.43,0,0,0-1,.12,5,5,0,0,0-2,1l-1,.36a4.63,4.63,0,0,0-.91-0.09,4.88,4.88,0,0,0-1.35.19,4.72,4.72,0,0,0-1.94,1.12l-0.9.3a3.15,3.15,0,0,0-.58,0,4.69,4.69,0,0,0-1.66.3A4.8,4.8,0,0,0,578.52,43l-0.86.35H577.4a5,5,0,0,0-2,.41,4.81,4.81,0,0,0-1.74,1.37l-0.86.42a4.83,4.83,0,0,0-3.9,2.08l-0.78.45a4.75,4.75,0,0,0-2.18.72,4.61,4.61,0,0,0-1.57,1.63l-0.76.52a4.67,4.67,0,0,0-2.12.85A5,5,0,0,0,560,53.62l-0.69.54a4.57,4.57,0,0,0-2.06,1A4.8,4.8,0,0,0,555.93,57c-0.19.19-.4,0.37-0.6,0.55a4.85,4.85,0,0,0-2,1.16,4.94,4.94,0,0,0-1.22,2l-0.57.58a5,5,0,0,0-1.92,1.28,4.82,4.82,0,0,0-1.09,2.08l-0.51.6a4.69,4.69,0,0,0-1.85,1.44,4.56,4.56,0,0,0-.92,2.11l-0.5.67A4.8,4.8,0,0,0,543,71a4.9,4.9,0,0,0-.78,2.2c-0.15.22-.29,0.47-0.44,0.69a4.84,4.84,0,0,0-1.63,1.67,4.69,4.69,0,0,0-.61,2.21c-0.14.24-.26,0.49-0.38,0.73a4.73,4.73,0,0,0-1.51,1.78,4.79,4.79,0,0,0-.47,2.26l-0.33.76a4.82,4.82,0,0,0-1.69,4.17c-0.09.27-.2,0.52-0.29,0.78a4.73,4.73,0,0,0-1.38,4.28l-0.23.79a4.77,4.77,0,0,0-1.08,2,4.63,4.63,0,0,0,0,2.34c-0.06.27-.12,0.53-0.17,0.78a4.81,4.81,0,0,0-1,2.11,4.88,4.88,0,0,0,.16,2.36,4.92,4.92,0,0,1-.09.76,4.66,4.66,0,0,0-.82,2.21,4.76,4.76,0,0,0,.35,2.33,3,3,0,0,1-.06.73,4.92,4.92,0,0,0-.68,2.29,4.85,4.85,0,0,0,.52,2.31v0.74a4.75,4.75,0,0,0-.52,2.31,4.91,4.91,0,0,0,.68,2.27,3.12,3.12,0,0,0,.06.74,4.63,4.63,0,0,0-.35,2.33,4.91,4.91,0,0,0,.83,2.22,5.82,5.82,0,0,0,.09.73,4.85,4.85,0,0,0-.17,2.36,4.79,4.79,0,0,0,1,2.11c0,0.27.11,0.53,0.18,0.79a4.75,4.75,0,0,0,0,2.33,4.68,4.68,0,0,0,1.1,2c0.08,0.28.15,0.54,0.24,0.8a4.59,4.59,0,0,0,.15,2.31,4.71,4.71,0,0,0,1.23,2c0.09,0.27.19,0.54,0.28,0.78a4.77,4.77,0,0,0,1.7,4.17l0.33,0.76a4.75,4.75,0,0,0,2,4c0.13,0.25.25,0.49,0.39,0.73a4.71,4.71,0,0,0,.63,2.23,4.78,4.78,0,0,0,1.63,1.68c0.13,0.23.28,0.45,0.43,0.68a4.78,4.78,0,0,0,.79,2.2,4.67,4.67,0,0,0,1.74,1.53l0.47,0.66a4.73,4.73,0,0,0,.93,2.13,5,5,0,0,0,1.86,1.44c0.17,0.21.34,0.4,0.5,0.61a5,5,0,0,0,1.09,2.05,4.78,4.78,0,0,0,1.93,1.3l0.56,0.59a4.74,4.74,0,0,0,3.26,3.13,7.7,7.7,0,0,0,.6.54,4.71,4.71,0,0,0,1.36,1.88,4.84,4.84,0,0,0,2.06,1l0.68,0.52a4.7,4.7,0,0,0,1.48,1.79,4.78,4.78,0,0,0,2.13.83l0.72,0.51a4.8,4.8,0,0,0,1.6,1.64,5.08,5.08,0,0,0,2.18.72l0.78,0.44a4.63,4.63,0,0,0,1.69,1.52,5,5,0,0,0,2.23.57l0.81,0.39a4.59,4.59,0,0,0,1.78,1.39,4.79,4.79,0,0,0,2,.41h0.27l0.85,0.34a4.64,4.64,0,0,0,1.87,1.25,4.82,4.82,0,0,0,1.68.3,3.44,3.44,0,0,0,.58-0.05l0.88,0.29a5,5,0,0,0,2,1.12,5.14,5.14,0,0,0,1.35.19,4.57,4.57,0,0,0,.91-0.1l0.92,0.22a4.81,4.81,0,0,0,2,1,5.83,5.83,0,0,0,1,.09,4.87,4.87,0,0,0,1.26-.17l0.82,0.17a4.8,4.8,0,0,0,2.12.83,3.87,3.87,0,0,0,.67,0,5,5,0,0,0,1.59-.27l0.9,0.08a4.78,4.78,0,0,0,2.17.7h0.33a5,5,0,0,0,1.89-.41h0.92a4.94,4.94,0,0,0,2.2.53h0a5,5,0,0,0,2.22-.53l0.92-.05a4.6,4.6,0,0,0,1.87.4h0.34a5,5,0,0,0,2.17-.7l0.91-.09a5,5,0,0,0,1.58.27,3.48,3.48,0,0,0,.68-0.06,4.67,4.67,0,0,0,2.1-.84,4.57,4.57,0,0,0,.9-0.15,5.1,5.1,0,0,0,1.27.16,4.38,4.38,0,0,0,1-.1,4.77,4.77,0,0,0,2-1l0.91-.22a4.33,4.33,0,0,0,.91.1,5.38,5.38,0,0,0,1.35-.18,4.9,4.9,0,0,0,2-1.13l0.9-.28a3.59,3.59,0,0,0,.59,0,4.69,4.69,0,0,0,1.64-.06,4.57,4.57,0,0,0,1.87-1.25l0.85-.35h0.28a4.77,4.77,0,0,0,2-.41,4.86,4.86,0,0,0,1.78-1.37l0.81-.41a4.9,4.9,0,0,0,2.22-.57,4.65,4.65,0,0,0,1.68-1.52l0.79-.45a4.65,4.65,0,0,0,2.18-.71,4.87,4.87,0,0,0,1.59-1.65l0.73-.5a4.7,4.7,0,0,0,2.11-.86,5,5,0,0,0,1.49-1.77c0.22-.17.45-0.36,0.69-0.52a4.73,4.73,0,0,0,2-1,4.62,4.62,0,0,0,1.33-1.86l0.63-.56a4.77,4.77,0,0,0,2-1.16,4.93,4.93,0,0,0,1.23-2l0.57-.59a4.67,4.67,0,0,0,3-3.36l0.52-.6a4.85,4.85,0,0,0,1.85-1.43,5,5,0,0,0,.93-2.13l0.48-.67a4.83,4.83,0,0,0,1.74-1.55,4.92,4.92,0,0,0,.78-2.19c0.15-.23.3-0.46,0.44-0.7a4.93,4.93,0,0,0,1.62-1.66,5,5,0,0,0,.63-2.22q0.2-.36.36-0.72a4.68,4.68,0,0,0,1.52-1.8,4.79,4.79,0,0,0,.47-2.25l0.33-.77a4.71,4.71,0,0,0,1.68-4.16c0.1-.27.2-0.52,0.3-0.8a4.79,4.79,0,0,0,1.24-2,5,5,0,0,0,.14-2.32c0.07-.27.16-0.53,0.23-0.81a4.58,4.58,0,0,0,1.09-2,4.65,4.65,0,0,0,0-2.33,3.86,3.86,0,0,1,.17-0.79,4.79,4.79,0,0,0,1-2.12,4.66,4.66,0,0,0-.19-2.35,6,6,0,0,1,.11-0.74,4.84,4.84,0,0,0,.83-2.22,4.92,4.92,0,0,0-.34-2.33v-0.74a4.86,4.86,0,0,0,.67-2.28" fill="#231f20"/><path d="M670.39,156.79a4.83,4.83,0,0,1-1.74,1.55l-0.48.67a5,5,0,0,1-.93,2.13,4.85,4.85,0,0,1-1.85,1.43l-0.52.6a4.67,4.67,0,0,1-3,3.36l-0.57.59a4.93,4.93,0,0,1-1.23,2,4.77,4.77,0,0,1-2,1.16l-0.63.56a4.62,4.62,0,0,1-1.33,1.86,4.73,4.73,0,0,1-2,1l-0.69.52a5,5,0,0,1-1.49,1.77,4.7,4.7,0,0,1-2.11.86l-0.73.5a4.87,4.87,0,0,1-1.59,1.65,4.65,4.65,0,0,1-2.18.71l-0.79.45a4.65,4.65,0,0,1-1.68,1.52,4.9,4.9,0,0,1-2.22.57l-0.81.41a4.86,4.86,0,0,1-1.84,1.39,4.77,4.77,0,0,1-2,.41h-0.27l-0.85.35a4.57,4.57,0,0,1-1.88,1.24,4.69,4.69,0,0,1-1.66.3,3.59,3.59,0,0,1-.59,0l-0.9.28a4.9,4.9,0,0,1-2,1.13,5.38,5.38,0,0,1-1.35.18,4.33,4.33,0,0,1-.91-0.1l-0.91.22a4.77,4.77,0,0,1-2,1,4.38,4.38,0,0,1-1,.1,5.1,5.1,0,0,1-1.27-.16c-0.3.06-.59,0.11-0.9,0.15a4.67,4.67,0,0,1-2.1.84,3.48,3.48,0,0,1-.68.06,5,5,0,0,1-1.58-.27l-0.91.09a5,5,0,0,1-2.17.7h-0.34a4.6,4.6,0,0,1-1.87-.4l-0.92.05a5,5,0,0,1-2.22.53h0a4.94,4.94,0,0,1-2.2-.53h-0.92a5,5,0,0,1-1.89.41h-0.33a4.78,4.78,0,0,1-2.17-.7l-0.9-.08a5,5,0,0,1-1.59.27,3.87,3.87,0,0,1-.67,0,4.8,4.8,0,0,1-2.1-1.07l-0.89-.16a4.87,4.87,0,0,1-1.26.17,5.83,5.83,0,0,1-1-.09,4.81,4.81,0,0,1-2-1l-0.92-.22a4.57,4.57,0,0,1-.91.1,5.14,5.14,0,0,1-1.35-.19,5,5,0,0,1-2-1.12l-0.88-.29a3.44,3.44,0,0,1-.58.05,4.82,4.82,0,0,1-1.68-.3,4.64,4.64,0,0,1-1.87-1.25c-0.29-.1-0.56-0.22-0.85-0.34h-0.27a4.79,4.79,0,0,1-2-.41,4.59,4.59,0,0,1-1.78-1.39l-0.76-.36a5,5,0,0,1-2.23-.57,4.63,4.63,0,0,1-1.69-1.52l-0.78-.44a5.08,5.08,0,0,1-2.18-.72,4.8,4.8,0,0,1-1.6-1.64l-0.72-.51a4.78,4.78,0,0,1-2.13-.83,4.7,4.7,0,0,1-1.48-1.79l-0.68-.52a4.84,4.84,0,0,1-2.06-1,4.71,4.71,0,0,1-1.36-1.88,6.22,6.22,0,0,1-.6-0.54,4.74,4.74,0,0,1-3.26-3.13l-0.56-.59a4.78,4.78,0,0,1-1.93-1.3,5,5,0,0,1-1.09-2.05c-0.16-.21-0.33-0.4-0.5-0.61a5,5,0,0,1-1.86-1.44,4.73,4.73,0,0,1-.93-2.13c-0.17-.22-0.33-0.44-0.47-0.66a4.67,4.67,0,0,1-1.74-1.53,4.5,4.5,0,0,1-.33-0.65,66.9,66.9,0,0,0,128,0A5.35,5.35,0,0,1,670.39,156.79Z" fill="#fff"/><path d="M608.26,94.9V89.23h13a1.44,1.44,0,0,0,1.43-1.44V87.5A1.43,1.43,0,0,0,621.28,86h-13V83.58h8.45a1.44,1.44,0,0,0,1.44-1.43V81.86a1.44,1.44,0,0,0-1.45-1.43h-8.44V78.19a1.43,1.43,0,0,0-1.43-1.43h-0.3a1.42,1.42,0,0,0-1.42,1.42h0v2.24h-8.45a1.43,1.43,0,0,0-1.43,1.43h0v0.28a1.43,1.43,0,0,0,1.43,1.43h8.45V86h-13a1.43,1.43,0,0,0-1.44,1.42h0v0.28a1.43,1.43,0,0,0,1.42,1.44h13v5.68h3.16v0Z" fill="#595a5c"/><path d="M579.67,112.94c0-6.78,2.93-7.58,6-7.58s6,0.79,6,7.58v3.91c0,7-2.6,7.9-6,7.9s-6-.92-6-7.89v-3.92Zm3.8,3.91c0,4.53.71,5.18,2.18,5.18s2.16-.65,2.16-5.18v-3.91c0-4-.73-4.86-2.16-4.86s-2.18.88-2.18,4.86v3.91Z" fill="#595a5c"/><path d="M611.93,121.23h5.58c1.36,0,1.91.66,1.91,1.53s-0.54,1.56-1.9,1.56h-7.27a1.65,1.65,0,0,1-2-1.85V107.65a1.66,1.66,0,0,1,2-1.86h7.08c1.35,0,1.89.68,1.89,1.56s-0.54,1.54-1.89,1.54h-5.4v4.27h5c1.36,0,1.91.68,1.91,1.54s-0.55,1.55-1.91,1.55h-5v5Z" fill="#595a5c"/><path d="M621.4,112.94c0-6.78,2.93-7.59,6-7.59s6,0.79,6,7.58v3.91c0,7-2.59,7.9-6,7.9s-6-.92-6-7.9v-3.91h0Zm3.81,3.91c0,4.53.71,5.18,2.17,5.17s2.17-.65,2.17-5.18v-3.91c0-4-.74-4.87-2.17-4.87s-2.17.88-2.17,4.87v3.91h0Z" fill="#595a5c"/><path d="M602.73,115.18c0.26-.16.74-0.48,0.86-0.54a6.44,6.44,0,0,0,.73-0.53c0.85-.69,1.23-1.77,1.22-3.54,0-2.64-1.11-4.78-4.39-4.77h-5a1.65,1.65,0,0,0-2,1.86v15.23a1.82,1.82,0,0,0,3.64,0v-6.63h1.79l2.59,7a1.61,1.61,0,0,0,1.88,1.28l0.28-.08a1.5,1.5,0,0,0,.92-2.21Zm-3.48-1.53h-1.42v-5.24h1.58c1.73,0,2.32.77,2.32,2.63a2.27,2.27,0,0,1-2.47,2.6h0Z" fill="#595a5c"/><path d="M606.71,136.42c-9.5,0-18.47-2.16-25.23-6.11-7-4.12-10.91-9.68-10.91-15.66s3.86-11.54,10.89-15.6c6.77-4,15.73-6.14,25.23-6.14S625.17,95,631.93,99c7,4.09,10.9,9.66,10.91,15.63s-3.91,11.53-10.91,15.65C625.18,134.23,616.22,136.42,606.71,136.42Zm0-40.4c-18.18,0-33,8.37-33,18.63s14.79,18.61,33,18.61,33-8.36,33-18.63S624.93,96,606.69,96Z" fill="#595a5c"/><path d="M613.29,184.58l-0.36-4.78a1.65,1.65,0,1,0-3.25.22L610,184.8a1.77,1.77,0,0,0,1.75,1.78h0a1.79,1.79,0,0,0,1.49-2" fill="#595a5c"/><path d="M618.21,183.94l-0.67-4.74a1.65,1.65,0,1,0-3.23.46L615,184.4a1.79,1.79,0,0,0,1.88,1.65h0a1.79,1.79,0,0,0,1.36-2.11" fill="#595a5c"/><path d="M623.07,183l-1-4.69a1.65,1.65,0,1,0-3.19.69l1,4.69a1.76,1.76,0,0,0,2,1.51h0a1.79,1.79,0,0,0,1.21-2.2" fill="#595a5c"/><path d="M627.84,181.65l-1.31-4.6a1.79,1.79,0,0,0-2.09-1.37,1.77,1.77,0,0,0-1.05,2.27h0l1.32,4.6a1.77,1.77,0,0,0,2.07,1.38h0a1.77,1.77,0,0,0,1-2.28" fill="#595a5c"/><path d="M632.52,180l-1.64-4.5a1.65,1.65,0,1,0-3.07,1.12l1.65,4.49a1.77,1.77,0,0,0,2.16,1.23h0a1.79,1.79,0,0,0,.88-2.35" fill="#595a5c"/><path d="M637.07,178l-2-4.38a1.65,1.65,0,1,0-3,1.33l2,4.38a1.8,1.8,0,0,0,2.26,1.07h0a1.77,1.77,0,0,0,.71-2.38" fill="#595a5c"/><path d="M641.47,175.78l-2.25-4.22a1.65,1.65,0,1,0-2.88,1.52l2.24,4.22a1.78,1.78,0,0,0,2.32.93h0a1.8,1.8,0,0,0,.55-2.45" fill="#595a5c"/><path d="M645.7,173.2l-2.54-4.06a1.78,1.78,0,0,0-2.38-.76,1.8,1.8,0,0,0-.38,2.49l2.54,4.06a1.79,1.79,0,0,0,2.38.75h0a1.78,1.78,0,0,0,.38-2.48" fill="#595a5c"/><path d="M649.75,170.33l-2.82-3.86a1.65,1.65,0,1,0-2.64,1.91l2.82,3.87a1.79,1.79,0,0,0,2.42.61h0a1.77,1.77,0,0,0,.2-2.49h0" fill="#595a5c"/><path d="M653.58,167.2l-3.09-3.67a1.64,1.64,0,1,0-2.48,2.09l3.08,3.68a1.8,1.8,0,0,0,2.46.42h0a1.77,1.77,0,0,0,0-2.49" fill="#595a5c"/><path d="M657.19,163.79l-3.33-3.44a1.65,1.65,0,1,0-2.35,2.26l3.32,3.43a1.79,1.79,0,0,0,2.49.26h0a1.8,1.8,0,0,0-.15-2.51" fill="#595a5c"/><path d="M660.53,160.14l-3.55-3.2a1.77,1.77,0,0,0-2.5-.06,1.79,1.79,0,0,0,.31,2.49l3.56,3.19a1.77,1.77,0,0,0,2.49.07h0a1.77,1.77,0,0,0-.32-2.48h0" fill="#595a5c"/><path d="M663.63,156.28l-3.77-2.94a1.65,1.65,0,1,0-2,2.56l3.77,3a1.79,1.79,0,0,0,2.49-.12h0a1.77,1.77,0,0,0-.5-2.45" fill="#595a5c"/><path d="M666.45,152.21l-4-2.67a1.76,1.76,0,0,0-2.47.26h0a1.79,1.79,0,0,0,.67,2.42l4,2.67a1.81,1.81,0,0,0,2.49-.27h0a1.77,1.77,0,0,0-.67-2.41" fill="#595a5c"/><path d="M668.93,147.94l-4.14-2.38a1.65,1.65,0,1,0-1.62,2.82l4.13,2.39a1.8,1.8,0,0,0,2.47-.45h0a1.79,1.79,0,0,0-.84-2.37" fill="#595a5c"/><path d="M671.21,143.51l-4.31-2.1a1.76,1.76,0,0,0-2.41.62,1.78,1.78,0,0,0,1,2.3l4.32,2.11a1.79,1.79,0,0,0,2.41-.63h0a1.76,1.76,0,0,0-1-2.28h0" fill="#595a5c"/><path d="M673.11,138.94l-4.44-1.8a1.65,1.65,0,1,0-1.21,3l4.42,1.8a1.82,1.82,0,0,0,2.39-.78h0a1.78,1.78,0,0,0-1.16-2.22" fill="#595a5c"/><path d="M674.7,134.24l-4.55-1.48a1.66,1.66,0,1,0-1,3.12l4.56,1.47a1.78,1.78,0,0,0,2.31-1h0a1.79,1.79,0,0,0-1.31-2.13" fill="#595a5c"/><path d="M675.93,129.45l-4.65-1.16A1.78,1.78,0,0,0,669,129.4a1.8,1.8,0,0,0,1.45,2.06l4.64,1.15a1.78,1.78,0,0,0,2.24-1.11h0a1.78,1.78,0,0,0-1.46-2" fill="#595a5c"/><path d="M676.87,124.58l-4.71-.84A1.8,1.8,0,0,0,670,125a1.78,1.78,0,0,0,1.59,1.93l4.72,0.83a1.79,1.79,0,0,0,2.16-1.26h0a1.79,1.79,0,0,0-1.6-1.93" fill="#595a5c"/><path d="M677.46,119.66l-4.77-.5a1.8,1.8,0,0,0-2.06,1.42,1.77,1.77,0,0,0,1.71,1.83h0l4.76,0.51a1.8,1.8,0,0,0,2.06-1.42h0a1.78,1.78,0,0,0-1.71-1.84" fill="#595a5c"/><path d="M677.68,114.71l-4.8-.17a1.65,1.65,0,1,0-.1,3.26l4.78,0.16a1.76,1.76,0,0,0,1.95-1.55h0a1.78,1.78,0,0,0-1.83-1.7" fill="#595a5c"/><path d="M677.57,109.75l-4.79.17a1.65,1.65,0,1,0,.1,3.27l4.8-.18a1.78,1.78,0,0,0,1.83-1.69h0a1.77,1.77,0,0,0-1.95-1.57h0" fill="#595a5c"/><path d="M677.1,104.83l-4.76.5a1.76,1.76,0,0,0-1.72,1.8h0a1.78,1.78,0,0,0,2.06,1.44h0l4.76-.5a1.78,1.78,0,0,0,1.72-1.82h0a1.77,1.77,0,0,0-2.06-1.41" fill="#595a5c"/><path d="M676.3,99.94l-4.72.83a1.65,1.65,0,1,0,.58,3.21l4.71-.84a1.78,1.78,0,0,0,1.59-1.92h0a1.79,1.79,0,0,0-2.16-1.27" fill="#595a5c"/><path d="M675.15,95.12l-4.64,1.15a1.66,1.66,0,1,0,.78,3.18l4.64-1.17a1.77,1.77,0,0,0,1.45-2h0a1.76,1.76,0,0,0-2.22-1.13h0" fill="#595a5c"/><path d="M673.68,90.38l-4.55,1.48A1.78,1.78,0,0,0,667.82,94a1.8,1.8,0,0,0,2.33,1l4.54-1.49A1.78,1.78,0,0,0,676,91.37h0a1.8,1.8,0,0,0-2.32-1" fill="#595a5c"/><path d="M671.88,85.77l-4.44,1.79a1.65,1.65,0,1,0,1.23,3l4.43-1.79a1.79,1.79,0,0,0,1.16-2.22h0a1.79,1.79,0,0,0-2.37-.8" fill="#595a5c"/><path d="M669.76,81.29l-4.29,2.1a1.65,1.65,0,1,0,1.46,2.93l4.3-2.1a1.78,1.78,0,0,0,1-2.28h0a1.79,1.79,0,0,0-2.43-.63" fill="#595a5c"/><path d="M667.33,77l-4.14,2.39a1.65,1.65,0,1,0,1.62,2.83l4.15-2.4a1.79,1.79,0,0,0,.84-2.35h0a1.79,1.79,0,0,0-2.45-.46" fill="#595a5c"/><path d="M664.6,72.83l-4,2.67a1.65,1.65,0,1,0,1.81,2.7l4-2.67a1.79,1.79,0,0,0,.68-2.41h0a1.8,1.8,0,0,0-2.49-.28" fill="#595a5c"/><path d="M661.6,68.89l-3.77,3a1.75,1.75,0,0,0-.51,2.42v0a1.77,1.77,0,0,0,2.5.13h0l3.77-3a1.79,1.79,0,0,0,.5-2.45h0a1.78,1.78,0,0,0-2.5-.11" fill="#595a5c"/><path d="M658.33,65.17l-3.55,3.2a1.65,1.65,0,1,0,2.15,2.42l3.55-3.2a1.78,1.78,0,0,0,.33-2.47h0a1.79,1.79,0,0,0-2.51.07" fill="#595a5c"/><path d="M654.8,61.68l-3.32,3.45a1.65,1.65,0,1,0,2.35,2.27L657.16,64a1.82,1.82,0,0,0,.16-2.5h0a1.79,1.79,0,0,0-2.5.23" fill="#595a5c"/><path d="M651,58.46l-3.11,3.66a1.8,1.8,0,0,0,0,2.51,1.77,1.77,0,0,0,2.47-.4l3.08-3.67a1.78,1.78,0,0,0,0-2.5h0a1.79,1.79,0,0,0-2.47.41" fill="#595a5c"/><path d="M647.07,55.49l-2.82,3.87a1.66,1.66,0,1,0,2.68,1.93l2.81-3.88a1.78,1.78,0,0,0-.19-2.49h0a1.79,1.79,0,0,0-2.44.58" fill="#595a5c"/><path d="M642.93,52.82l-2.53,4.07a1.65,1.65,0,1,0,2.76,1.72l2.54-4.06a1.79,1.79,0,0,0-.36-2.47h0a1.78,1.78,0,0,0-2.4.74" fill="#595a5c"/><path d="M638.55,50.45l-2.25,4.22a1.65,1.65,0,1,0,2.87,1.54L641.41,52a1.78,1.78,0,0,0-.53-2.44h0a1.79,1.79,0,0,0-2.34.92" fill="#595a5c"/><path d="M634.05,48.37l-1.94,4.39a1.65,1.65,0,1,0,3,1.31l1.94-4.36a1.8,1.8,0,0,0-.71-2.41h0a1.79,1.79,0,0,0-2.27,1.07" fill="#595a5c"/><path d="M629.41,46.64l-1.64,4.49a1.65,1.65,0,1,0,3.06,1.11l1.64-4.51a1.79,1.79,0,0,0-.86-2.34h0a1.78,1.78,0,0,0-2.18,1.24" fill="#595a5c"/><path d="M624.65,45.21l-1.31,4.61a1.65,1.65,0,1,0,3.14.89l1.31-4.59a1.8,1.8,0,0,0-1-2.29h0a1.79,1.79,0,0,0-2.09,1.38" fill="#595a5c"/><path d="M619.82,44.13l-1,4.68a1.65,1.65,0,1,0,3.19.67l1-4.68a1.8,1.8,0,0,0-1.19-2.2h0a1.79,1.79,0,0,0-2,1.53" fill="#595a5c"/><path d="M614.93,43.38l-0.67,4.74a1.65,1.65,0,1,0,3.23.44l0.67-4.74a1.79,1.79,0,0,0-1.34-2.11h0a1.79,1.79,0,0,0-1.89,1.67" fill="#595a5c"/><path d="M610,43l-0.33,4.78a1.65,1.65,0,1,0,3.25.23l0.32-4.78a1.76,1.76,0,0,0-1.47-2h0A1.78,1.78,0,0,0,610,43" fill="#595a5c"/><path d="M605,42.92V47.7a1.64,1.64,0,1,0,3.25,0V42.92a1.79,1.79,0,0,0-1.61-1.9h0a1.77,1.77,0,0,0-1.62,1.9" fill="#595a5c"/><path d="M600.08,43.2L600.42,48a1.65,1.65,0,1,0,3.26-.24L603.34,43a1.78,1.78,0,0,0-1.73-1.77h0a1.79,1.79,0,0,0-1.5,2" fill="#595a5c"/><path d="M595.18,43.83l0.67,4.74a1.65,1.65,0,1,0,3.23-.45l-0.67-4.73a1.81,1.81,0,0,0-1.86-1.67h0a1.77,1.77,0,0,0-1.35,2.1" fill="#595a5c"/><path d="M590.31,44.8l1,4.69a1.65,1.65,0,1,0,3.2-.67l-1-4.69a1.79,1.79,0,0,0-2-1.52h0a1.78,1.78,0,0,0-1.2,2.19" fill="#595a5c"/><path d="M585.53,46.12l1.33,4.6a1.77,1.77,0,0,0,2.07,1.38A1.79,1.79,0,0,0,590,49.81l-1.33-4.6a1.78,1.78,0,0,0-2.06-1.39h0a1.8,1.8,0,0,0-1,2.29" fill="#595a5c"/><path d="M580.86,47.76l1.63,4.49a1.65,1.65,0,1,0,3.07-1.12l-1.63-4.48a1.82,1.82,0,0,0-2.18-1.26h0a1.8,1.8,0,0,0-.88,2.35" fill="#595a5c"/><path d="M576.31,49.72L578.25,54a1.65,1.65,0,1,0,3-1.33l-2-4.38A1.8,1.8,0,0,0,577,47.26h0a1.77,1.77,0,0,0-.72,2.4h0" fill="#595a5c"/><path d="M571.93,52l2.25,4.22a1.65,1.65,0,1,0,2.88-1.53l-2.25-4.22a1.79,1.79,0,0,0-2.32-.92h0a1.78,1.78,0,0,0-.55,2.44" fill="#595a5c"/><path d="M567.67,54.58l2.54,4.06a1.65,1.65,0,1,0,2.72-1.73l-2.54-4.06a1.78,1.78,0,0,0-2.39-.76h0a1.79,1.79,0,0,0-.38,2.47" fill="#595a5c"/><path d="M563.64,57.44l2.81,3.87a1.65,1.65,0,1,0,2.64-1.92l-2.81-3.86a1.79,1.79,0,0,0-2.42-.59h0a1.79,1.79,0,0,0-.19,2.51" fill="#595a5c"/><path d="M559.8,60.58l3.07,3.66a1.65,1.65,0,1,0,2.49-2.09l-3.07-3.66a1.8,1.8,0,0,0-2.46-.42h0a1.79,1.79,0,0,0,0,2.51" fill="#595a5c"/><path d="M556.2,64l3.33,3.44a1.76,1.76,0,0,0,2.48.23h0a1.79,1.79,0,0,0-.14-2.5l-3.32-3.44a1.8,1.8,0,0,0-2.5-.25h0A1.77,1.77,0,0,0,556.2,64" fill="#595a5c"/><path d="M552.83,67.62l3.56,3.21a1.65,1.65,0,1,0,2.18-2.42L555,65.21a1.78,1.78,0,0,0-2.5-.08h0a1.78,1.78,0,0,0,.32,2.48" fill="#595a5c"/><path d="M549.73,71.49l3.78,3a1.65,1.65,0,1,0,2-2.57L551.73,69a1.78,1.78,0,0,0-2.5.1h0a1.79,1.79,0,0,0,.49,2.45" fill="#595a5c"/><path d="M546.93,75.58l4,2.68a1.65,1.65,0,1,0,1.81-2.71l-4-2.67a1.79,1.79,0,0,0-2.48.28h0a1.78,1.78,0,0,0,.66,2.42" fill="#595a5c"/><path d="M544.4,79.84l4.14,2.4a1.65,1.65,0,1,0,1.64-2.83L546,77a1.8,1.8,0,0,0-2.45.45h0a1.8,1.8,0,0,0,.83,2.37" fill="#595a5c"/><path d="M542.17,84.27l4.31,2.09a1.65,1.65,0,1,0,1.45-2.93l-4.31-2.09a1.79,1.79,0,0,0-2.42.62h0a1.78,1.78,0,0,0,1,2.3" fill="#595a5c"/><path d="M540.27,88.84l4.43,1.78a1.77,1.77,0,0,0,2.38-.78h0a1.8,1.8,0,0,0-1.15-2.23l-4.43-1.78a1.78,1.78,0,0,0-2.37.78h0a1.8,1.8,0,0,0,1.16,2.23" fill="#595a5c"/><path d="M538.69,93.53L543.23,95a1.65,1.65,0,1,0,1-3.1l-4.54-1.48a1.8,1.8,0,0,0-2.32,1h0a1.79,1.79,0,0,0,1.32,2.14" fill="#595a5c"/><path d="M537.42,98.33l4.65,1.15a1.65,1.65,0,1,0,.78-3.16l-4.64-1.16a1.78,1.78,0,0,0-2.27,1.09v0h0a1.81,1.81,0,0,0,1.46,2" fill="#595a5c"/><path d="M536.5,103.2l4.72,0.83a1.65,1.65,0,1,0,.56-3.22l-4.7-.83a1.78,1.78,0,0,0-2.15,1.27h0a1.78,1.78,0,0,0,1.59,1.94" fill="#595a5c"/><path d="M535.93,108.11l4.76,0.5a1.65,1.65,0,1,0,.34-3.25l-4.75-.48a1.79,1.79,0,0,0-2.06,1.4h0A1.78,1.78,0,0,0,536,108.1" fill="#595a5c"/><path d="M535.7,113l4.79,0.16a1.78,1.78,0,0,0,2-1.53v0a1.8,1.8,0,0,0-1.84-1.7l-4.79-.17a1.79,1.79,0,0,0-2,1.55h0a1.79,1.79,0,0,0,1.85,1.69" fill="#595a5c"/><path d="M535.82,118l4.78-.16a1.66,1.66,0,1,0-.11-3.27l-4.77.18a1.79,1.79,0,0,0-1.86,1.68h0a1.79,1.79,0,0,0,2,1.56h0" fill="#595a5c"/><path d="M536.28,122.94l4.75-.5a1.65,1.65,0,1,0-.33-3.24l-4.77.51a1.77,1.77,0,0,0-1.72,1.8h0a1.78,1.78,0,0,0,2.07,1.41" fill="#595a5c"/><path d="M537.08,127.84l4.71-.83a1.65,1.65,0,1,0-.57-3.22l-4.72.84a1.78,1.78,0,0,0-1.58,1.93h0a1.79,1.79,0,0,0,2.16,1.28" fill="#595a5c"/><path d="M538.22,132.67l4.65-1.17a1.65,1.65,0,1,0-.79-3.16l-4.64,1.15a1.78,1.78,0,0,0-1.46,2h0a1.76,1.76,0,0,0,2.22,1.13h0" fill="#595a5c"/><path d="M539.7,137.39l4.55-1.48a1.65,1.65,0,1,0-1-3.1l-4.54,1.48a1.8,1.8,0,0,0-1.32,2.13h0a1.76,1.76,0,0,0,2.27,1h0" fill="#595a5c"/><path d="M541.5,142l4.44-1.79a1.65,1.65,0,1,0-1.21-3l-4.44,1.8a1.78,1.78,0,0,0-1.17,2.2h0a1.77,1.77,0,0,0,2.36.8" fill="#595a5c"/><path d="M543.62,146.49l4.3-2.1a1.64,1.64,0,1,0-1.42-2.92l-4.3,2.09a1.79,1.79,0,0,0-1,2.29h0a1.78,1.78,0,0,0,2.42.63" fill="#595a5c"/><path d="M546.05,150.8l4.15-2.39a1.65,1.65,0,1,0-1.64-2.82L544.43,148a1.79,1.79,0,0,0-.83,2.36h0a1.76,1.76,0,0,0,2.45.45h0" fill="#595a5c"/><path d="M548.77,154.95l4-2.68a1.65,1.65,0,1,0-1.83-2.7l-4,2.68a1.78,1.78,0,0,0-.67,2.4h0a1.8,1.8,0,0,0,2.5.29" fill="#595a5c"/><path d="M551.79,158.88l3.76-2.93a1.65,1.65,0,1,0-2-2.58l-3.77,2.94a1.8,1.8,0,0,0-.51,2.46h0a1.8,1.8,0,0,0,2.51.1" fill="#595a5c"/><path d="M555.05,162.61l3.56-3.21a1.77,1.77,0,0,0,.32-2.48,1.8,1.8,0,0,0-2.51.05l-3.55,3.21a1.78,1.78,0,0,0-.34,2.47h0a1.81,1.81,0,0,0,2.51-.06" fill="#595a5c"/><path d="M558.57,166l3.36-3.4a1.65,1.65,0,1,0-2.35-2.28l-3.32,3.45a1.78,1.78,0,0,0-.16,2.5h0a1.78,1.78,0,0,0,2.48-.24" fill="#595a5c"/><path d="M562.34,169.32l3.07-3.67a1.77,1.77,0,0,0,0-2.5,1.81,1.81,0,0,0-2.48.4l-3.07,3.67a1.8,1.8,0,0,0,0,2.5h0a1.79,1.79,0,0,0,2.48-.4" fill="#595a5c"/><path d="M566.31,172.29l2.81-3.88a1.65,1.65,0,1,0-2.64-1.92l-2.82,3.88a1.78,1.78,0,0,0,.2,2.49h0a1.8,1.8,0,0,0,2.44-.58" fill="#595a5c"/><path d="M570.48,174.95l2.54-4.06a1.65,1.65,0,1,0-2.76-1.73l-2.53,4.07a1.77,1.77,0,0,0,.37,2.47h0a1.79,1.79,0,0,0,2.39-.75" fill="#595a5c"/><path d="M574.84,177.33l2.24-4.22a1.65,1.65,0,1,0-2.88-1.54l-2.27,4.23a1.76,1.76,0,0,0,.54,2.43h0a1.8,1.8,0,0,0,2.34-.92" fill="#595a5c"/><path d="M579.33,179.4l1.94-4.38a1.64,1.64,0,0,0-2.95-1.44l-0.05.12L576.36,178a1.76,1.76,0,0,0,.7,2.38h0a1.76,1.76,0,0,0,2.26-1h0" fill="#595a5c"/><path d="M583.93,181.15l1.63-4.5a1.65,1.65,0,1,0-3.06-1.12L580.93,180a1.78,1.78,0,0,0,.88,2.34h0a1.79,1.79,0,0,0,2.12-1.24" fill="#595a5c"/><path d="M588.72,182.57L590,178a1.65,1.65,0,1,0-3.11-.92l-1.31,4.6a1.75,1.75,0,0,0,1,2.26h0a1.79,1.79,0,0,0,2.1-1.38" fill="#595a5c"/><path d="M593.55,183.66l1-4.68a1.65,1.65,0,1,0-3.19-.68l-1,4.67a1.79,1.79,0,0,0,1.17,2.21h0a1.79,1.79,0,0,0,2-1.51" fill="#595a5c"/><path d="M598.45,184.4l0.67-4.74a1.65,1.65,0,1,0-3.24-.45l-0.66,4.73a1.78,1.78,0,0,0,1.33,2.12h0a1.78,1.78,0,0,0,1.88-1.66" fill="#595a5c"/><path d="M603.39,184.81l0.32-4.77a1.65,1.65,0,1,0-3.25-.24l-0.33,4.78a1.78,1.78,0,0,0,1.49,2h0a1.77,1.77,0,0,0,1.76-1.77" fill="#595a5c"/><path d="M608.35,184.86V180a1.65,1.65,0,1,0-3.25,0v4.78a1.78,1.78,0,0,0,1.61,1.91h0a1.79,1.79,0,0,0,1.64-1.91" fill="#595a5c"/><path d="M606,54.48c1.39,0,5.08-.06,7,0.11,1.25,0.12,3.57.44,3.54,1.75-0.06,2.2-3.9.93-5.61,0.76a69.13,69.13,0,0,0-10.37.18c-1.75.18-3.44,0.55-3.54-.9-0.17-2.37,6.11-1.81,9-1.91" fill="#595a5c"/><path d="M621.93,56c2.33,1.87-1.62,4.08-2.06,1.66-0.21-1,.46-1.9,2.06-1.66" fill="#595a5c"/><path d="M590,58.15c-0.49-2.57,2.39-2.6,2.75-1.15A1.51,1.51,0,0,1,590,58.15" fill="#595a5c"/><path d="M628.19,58.55c1.33-.59,3.65,1.14,4.9,1.76A79.61,79.61,0,0,1,641.33,65c1.55,1.08,3.3,2.08,3.18,3.26a1.62,1.62,0,0,1-1.21,1.34c-1,.14-1.71-1-2-1.22a62.28,62.28,0,0,0-9.93-6.08c-1.32-.64-3.83-0.91-4-2.26a1.37,1.37,0,0,1,.87-1.52" fill="#595a5c"/><path d="M585.41,58c2.44,2.06-1.48,3.3-3.12,4a50.41,50.41,0,0,0-10.1,6c-0.94.69-2.92,1.95-3.24,0-0.17-1.23,2-2.61,3.11-3.35A99.1,99.1,0,0,1,584.23,58h1.18" fill="#595a5c"/><path d="M563.65,70.14c2.8-.88,2.7,3.19.47,2.73a1.62,1.62,0,0,1-.47-2.73" fill="#595a5c"/><path d="M647.17,71.4a1.38,1.38,0,0,1,2,1.22,1.48,1.48,0,0,1-2.88.46,1.28,1.28,0,0,1,.76-1.64l0.11,0" fill="#595a5c"/><path d="M652.37,76.23a2.16,2.16,0,0,1,1.36-.18c0.56,0.19,2.1,2.53,2.84,3.61a60.27,60.27,0,0,1,5.61,10.27c0.6,1.42,1.19,3.56-1.07,3.2-1.27-.19-1.61-2.39-2.32-3.93a43.56,43.56,0,0,0-6-9.78c-0.76-1-1.87-2.47-.44-3.24" fill="#595a5c"/><path d="M559.67,76a1.38,1.38,0,0,1,2.18.71c0.19,0.89-.63,1.81-1,2.37a51.36,51.36,0,0,0-6.27,9.9c-0.68,1.45-.91,4-2.61,3.86-2.56-.14-0.36-4,0.43-5.59,2-3.94,4.84-8.7,7.31-11.26" fill="#595a5c"/><path d="M662.24,96.59a1.35,1.35,0,0,1,2,.87c0.39,2.06-2.62,2.26-2.9.63a1.25,1.25,0,0,1,.87-1.5" fill="#595a5c"/><path d="M549.34,96.41A1.37,1.37,0,0,1,551,97.62a1.7,1.7,0,0,1-1.21,1.68c-1.36.18-2.54-2.44-.46-2.89" fill="#595a5c"/><path d="M663.81,105.61c0.48-.7,1.45-1.61,2.38-0.82,0.7,0.6.84,3.92,1,5.28a86,86,0,0,1-.16,10.18c-0.16,1.89-.62,3.7-1.75,3.72-2.12,0-1.1-2.9-1-4.44a63.92,63.92,0,0,0-.46-13.92" fill="#595a5c"/><path d="M549.23,103.88c0.72,0.75,0,2.12,0,2.88A89.72,89.72,0,0,0,549,118.3c0.09,1.2,1.1,4.13-.41,4.58-2.49.75-2.35-5.13-2.42-7.85-0.07-2,0-4.2.09-5.42,0.1-1.72.24-5.08,1.1-5.76,0.31-.56,1.5-0.32,1.87,0" fill="#595a5c"/><path d="M664.5,127.17a2.32,2.32,0,0,1,.31,2.39,1.86,1.86,0,0,1-2.54-.55c-0.15-1.53.67-2.07,2.23-1.84" fill="#595a5c"/><path d="M548.37,126.95c2.3-.46,1.65,2.93,0,2.71-1-.11-1.9-2.33,0-2.71" fill="#595a5c"/><path d="M661.33,134.94c3.91-1.26,1,4,.25,5.61a61.09,61.09,0,0,1-5,8.24c-0.71,1.05-1.8,3.56-3.45,3a2.91,2.91,0,0,1-.83-0.86c-0.31-1.15,1.67-3.21,2.27-4a59.83,59.83,0,0,0,4.7-7.73c0.77-1.57,1.07-3.39,2.1-4.22" fill="#595a5c"/><path d="M549.44,134.61c2-2.26,3.36,1.62,4.2,3.46a54.15,54.15,0,0,0,5.78,9.93c0.52,0.73,1.91,2.52.13,3.07s-3.11-2.68-3.52-3.3a59.35,59.35,0,0,1-5-8.22,11.39,11.39,0,0,1-1.62-4.94" fill="#595a5c"/><path d="M649.49,154.12c2.18-.72,2.23,2.54.63,2.72a1.4,1.4,0,0,1-.63-2.72" fill="#595a5c"/><path d="M561.86,156.19c-0.13-1.52.48-2.27,2.06-2,2,1.3-.84,4-2.06,2" fill="#595a5c"/><path d="M627,169c-1-2,1.56-2.56,3.44-3.35,4.3-1.82,8.78-5.08,11.65-7.12,0.78-.56,2,0.79,2,1.22,0.1,1.29-2.6,2.63-3.62,3.33a61.33,61.33,0,0,1-8.73,5c-1.42.67-3.18,2.19-4.77,1" fill="#595a5c"/><path d="M569.44,159.19c2.43,1.23,4.52,3.35,7.9,5.21,1.23,0.67,2.61,1.28,4.4,2.11,1.34,0.61,3.89,1.25,3.34,2.93s-3.42,0-4.73-.57a63.9,63.9,0,0,1-8.93-5.06c-1.14-.77-3.56-2-3.52-3.29a1.29,1.29,0,0,1,1.54-1.33" fill="#595a5c"/><path d="M623.29,169c1.91,2.23-2,3.7-2.4,1.48a1.56,1.56,0,0,1,2.4-1.48" fill="#595a5c"/><path d="M590.86,169.19c2.35,2.12-2,3.93-2.24,1.5-0.07-1,.72-1.72,2.24-1.5" fill="#595a5c"/><path d="M614.44,170.23c0.93,0,2-.2,1.84,1.38-0.13,1.38-2.81,1.5-4.6,1.63a78,78,0,0,1-8.83-.13c-2.27-.14-5.61.25-5.92-1.45-0.5-2.64,3.89-1.24,5.79-1.11,3.78,0.26,8.58-.39,11.38-0.34h0.33v0Z" fill="#595a5c"/><path d="M581.63,72.11a1.51,1.51,0,1,0,2-.65l0,0a1.51,1.51,0,0,0-2,.67" fill="#595a5c"/><path d="M564.07,90.38a1.51,1.51,0,1,0,2-.64,1.51,1.51,0,0,0-2,.64" fill="#595a5c"/><path d="M557.78,114.77a1.51,1.51,0,1,0,1.9-.64,1.51,1.51,0,0,0-1.9.64" fill="#595a5c"/><path d="M565.71,137.12a1.5,1.5,0,1,0,2-.65h0a1.49,1.49,0,0,0-2,.66" fill="#595a5c"/><path d="M582.81,154a1.52,1.52,0,0,0,.67,2,1.51,1.51,0,1,0-.69-2" fill="#595a5c"/><path d="M606.07,161a1.5,1.5,0,1,0,2-.65h0a1.5,1.5,0,0,0-2,.66" fill="#595a5c"/><path d="M632.12,154.21a1.46,1.46,0,1,0,2-.69,1.52,1.52,0,0,0-2,.69" fill="#595a5c"/><path d="M648.37,135.33a1.49,1.49,0,0,0,.66,2,1.51,1.51,0,1,0-.64-2l0,0" fill="#595a5c"/><path d="M652.93,111.77a1.12,1.12,0,1,0,0-.05" fill="#595a5c"/><path d="M646.42,88.67a1.48,1.48,0,0,0,.65,2h0a1.51,1.51,0,1,0-.65-2l0,0" fill="#595a5c"/><path d="M630.15,71.6A1.51,1.51,0,1,0,632.81,73l0-.08a1.49,1.49,0,1,0-2.66-1.33" fill="#595a5c"/><path d="M605.35,65.45a1.5,1.5,0,1,0,2-.65h0a1.49,1.49,0,0,0-2,.66" fill="#595a5c"/><path d="M589.82,92.35a0.69,0.69,0,0,1-.35.91h-0.08a47.5,47.5,0,0,0-4.47,1.63c-1.47.63-2.85,1.31-4.29,2.07h0a0.72,0.72,0,0,1-.91-1h0l1.36-2.6h0l0.84-1.6a2.29,2.29,0,0,1,1.2-1h0.18a2.38,2.38,0,0,1,1.57-.14L586.54,91h0l2.81,0.84h0a0.69,0.69,0,0,1,.47.41" fill="#595a5c"/><path d="M624,91.93h0l2.82-.85h0l1.73-.53a2.37,2.37,0,0,1,1.58.14h0.18a2.38,2.38,0,0,1,1.19,1l0.84,1.6h0l1.36,2.6h0a0.79,0.79,0,0,1,0,.63,0.73,0.73,0,0,1-.94.37h0c-1.43-.77-2.86-1.45-4.28-2.06S625.5,93.69,624,93.2h0a0.69,0.69,0,0,1-.39-0.89v0a0.66,0.66,0,0,1,.46-0.42" fill="#595a5c"/><path d="M603.7,142a18.28,18.28,0,0,1,1.35-1.56,3.06,3.06,0,0,1,1.55-1.27c1.19,0,2.26,2.18,3,2.83,0.64-1.07,1.07-2.36,2.26-2.9a15.46,15.46,0,0,1,3,.28c-0.37,1.21-1.51,1.59-2.26,2.34a29.2,29.2,0,0,0-4,5.09c-0.42.67-1.14,2.56-2,2.55s-1.53-2-1.9-2.61a29.44,29.44,0,0,0-4-5.09c-0.74-.74-1.85-1.06-2.19-2.27a24.26,24.26,0,0,1,2.55-.35c1.52,0.09,2,1.87,2.61,3m3,2.55c0.72-.83.94-3.78-0.14-4.38-0.7,1-.83,3.63.14,4.38" fill="#595a5c"/><path d="M623.54,138a0.71,0.71,0,0,1,.37-0.93h0a44.91,44.91,0,0,0,4.47-1.64c1.47-.64,2.85-1.29,4.28-2h0a0.72,0.72,0,0,1,.94.38,0.73,0.73,0,0,1,0,.62h0l-1.35,2.6h0l-0.85,1.61a2.42,2.42,0,0,1-1.19,1H630a2.36,2.36,0,0,1-1.57.14l-1.73-.53h0l-2.82-.84h0a0.75,0.75,0,0,1-.47-0.39" fill="#595a5c"/><path d="M589.09,141.64h0l2.81-.84h0l1.74-.53a2.4,2.4,0,0,1,1.59.14h0.17a2.37,2.37,0,0,1,1.2,1l0.83,1.62h0l1.36,2.6h0a0.73,0.73,0,0,1,0,.62,0.71,0.71,0,0,1-.93.38H597.8c-1.43-.76-2.87-1.44-4.28-2.05s-2.92-1.15-4.46-1.64H589a0.7,0.7,0,0,1-.39-0.91v0a0.65,0.65,0,0,1,.47-0.41" fill="#595a5c"/><path d="M589.38,138.48h0l-2.81.84h0l-1.74.53a2.32,2.32,0,0,1-1.58-.14h-0.17a2.31,2.31,0,0,1-1.19-1L581,137.1h0l-1.36-2.59h0a0.68,0.68,0,0,1,0-.62,0.71,0.71,0,0,1,.93-0.38h0c1.43,0.76,2.87,1.45,4.29,2.06s2.92,1.14,4.47,1.63h0a0.71,0.71,0,0,1,.39.92h0a0.75,0.75,0,0,1-.47.41" fill="#595a5c"/><path d="M624.77,142a0.71,0.71,0,0,1-.38.93h-0.07c-1.55.49-3,1.05-4.48,1.64a40.94,40.94,0,0,0-4.28,2.06H615.5a0.74,0.74,0,0,1-.94-0.39,0.69,0.69,0,0,1,0-.6h0l1.35-2.61h0l0.84-1.61a2.39,2.39,0,0,1,1.2-1h0.17a2.25,2.25,0,0,1,1.57-.14l1.74,0.53h0l2.81,0.84h0a0.68,0.68,0,0,1,.47.41" fill="#595a5c"/><path d="M600.23,101.82h12.9a0.64,0.64,0,0,0,.65-0.63h0a0.66,0.66,0,0,0-.39-0.6h0l-4.6-2.16a3.17,3.17,0,0,0-4.2,0L600,100.58h0a0.64,0.64,0,0,0,.29,1.21" fill="#595a5c"/><path d="M613.15,127.18H600.24a0.63,0.63,0,0,0-.64.62h0a0.66,0.66,0,0,0,.39.6h0l4.6,2.17a8.63,8.63,0,0,0,2.1.8,8.45,8.45,0,0,0,2.1-.79l4.59-2.17h0.06a0.65,0.65,0,0,0,.35-0.57,0.64,0.64,0,0,0-.64-0.64h0" fill="#595a5c"/><path d="M614.88,62.31l2.7,4.35a1.94,1.94,0,0,0,2.67.62l4.23-2.64h0a1.15,1.15,0,0,0-.31-2.12h-0.06a1.28,1.28,0,0,0-.39,0,10.24,10.24,0,0,1-3.76-.19,10.59,10.59,0,0,1-3.43-1.48,1.38,1.38,0,0,0-.36-0.18h0a1.14,1.14,0,0,0-1.38.83v0a1.07,1.07,0,0,0,.11.8" fill="#595a5c"/><path d="M621.7,76.92L619,72.59a2,2,0,0,0-2.67-.63l-4.25,2.64h0a1.21,1.21,0,0,0-.54.75,1.17,1.17,0,0,0,.87,1.39h0.06a1.27,1.27,0,0,0,.4,0,10.47,10.47,0,0,1,3.74.18A10.62,10.62,0,0,1,620,78.41a1.12,1.12,0,0,0,.36.16h0a1.13,1.13,0,0,0,1.37-.82v0a1.06,1.06,0,0,0-.11-0.8" fill="#595a5c"/><path d="M611,73l4.33-2.71a1.94,1.94,0,0,0,.63-2.66l-2.65-4.24h0a1.15,1.15,0,0,0-2.11.32v0.07a3.08,3.08,0,0,0,0,.4,10.58,10.58,0,0,1-1.67,7.18,1.21,1.21,0,0,0-.16.35h0a1.15,1.15,0,0,0,.85,1.39h0A1.23,1.23,0,0,0,611,73" fill="#595a5c"/><path d="M625.58,66.22l-4.33,2.7a1.94,1.94,0,0,0-.63,2.67l2.65,4.24h0a1.09,1.09,0,0,0,.73.54,1.15,1.15,0,0,0,1.39-.85V75.44a1.39,1.39,0,0,0,0-.4,10.21,10.21,0,0,1,.18-3.74,10.49,10.49,0,0,1,1.48-3.43,1.13,1.13,0,0,0,.17-0.37h0a1.18,1.18,0,0,0-.87-1.4,1.16,1.16,0,0,0-.81.12" fill="#595a5c"/><path d="M616.85,70a1.49,1.49,0,0,0,1.85,1h0a1.5,1.5,0,1,0-1.87-1" fill="#595a5c"/><path d="M592.19,151.54l2.69,4.34a2,2,0,0,0,2.67.62l4.24-2.63h0a1.17,1.17,0,0,0-.32-2.14h-0.06a1.16,1.16,0,0,0-.4,0,10.4,10.4,0,0,1-7.17-1.68,2.44,2.44,0,0,0-.36-0.17h0a1.14,1.14,0,0,0-1.28,1.66" fill="#595a5c"/><path d="M599,166.15l-2.7-4.34a1.92,1.92,0,0,0-2.64-.62h0l-4.24,2.63h0a1.11,1.11,0,0,0-.55.74,1.16,1.16,0,0,0,.86,1.39h0a1.57,1.57,0,0,0,.41,0,10.64,10.64,0,0,1,3.72.18,11,11,0,0,1,3.44,1.48,1.26,1.26,0,0,0,.35.18h0a1.17,1.17,0,0,0,1.4-.87,1.1,1.1,0,0,0-.13-0.8" fill="#595a5c"/><path d="M588.3,162.26l4.32-2.7a1.93,1.93,0,0,0,.64-2.65v0l-2.64-4.24h0a1.13,1.13,0,0,0-.73-0.55,1.16,1.16,0,0,0-1.39.87V153a2.42,2.42,0,0,0,0,.4,10.22,10.22,0,0,1-.18,3.73,10.64,10.64,0,0,1-1.48,3.44,1.33,1.33,0,0,0-.17.36h0a1.16,1.16,0,0,0,1.68,1.28" fill="#595a5c"/><path d="M602.93,155.44l-4.33,2.7a1.93,1.93,0,0,0-.64,2.65v0l2.64,4.24h0a1.15,1.15,0,0,0,2.12-.32v-0.05a1.69,1.69,0,0,0,0-.41,10.46,10.46,0,0,1,.18-3.74,10.62,10.62,0,0,1,1.48-3.43,1.2,1.2,0,0,0,.18-0.35h0a1.17,1.17,0,0,0-.86-1.4,1.21,1.21,0,0,0-.81.12" fill="#595a5c"/><path d="M594.15,159.28a1.52,1.52,0,0,0,1.87,1,1.5,1.5,0,1,0-1.87-1h0" fill="#595a5c"/><path d="M640.23,73.61l0.11,5.11a1.94,1.94,0,0,0,2,1.9h0l5-.11h0a1.16,1.16,0,0,0,.82-2h0a1.35,1.35,0,0,0-.35-0.21,10.45,10.45,0,0,1-3.12-2.07,10.25,10.25,0,0,1-2.19-3,1.94,1.94,0,0,0-.23-0.33h0a1.14,1.14,0,0,0-2,.77" fill="#595a5c"/><path d="M638.66,89.65l-0.11-5.1a1.93,1.93,0,0,0-2-1.9h0l-5,.11h0a1.07,1.07,0,0,0-.83.36,1.15,1.15,0,0,0,0,1.63h0a1.12,1.12,0,0,0,.34.21A10.58,10.58,0,0,1,634.27,87a10.47,10.47,0,0,1,2.2,3,1.12,1.12,0,0,0,.23.34h0a1.15,1.15,0,0,0,1.62,0,1.13,1.13,0,0,0,.33-0.75" fill="#595a5c"/><path d="M631.42,80.85l5.11-.12a1.93,1.93,0,0,0,1.89-2v0l-0.11-5h0a1.15,1.15,0,0,0-2-.82V73a1.69,1.69,0,0,0-.22.33,10.66,10.66,0,0,1-2,3.13,10.52,10.52,0,0,1-3,2.19,1.35,1.35,0,0,0-.32.23h0a1.13,1.13,0,0,0,.75,1.95" fill="#595a5c"/><path d="M647.46,82.43l-5.1.1a2,2,0,0,0-1.91,2l0.11,5h0a1.21,1.21,0,0,0,.35.85,1.17,1.17,0,0,0,1.65,0h0a1.33,1.33,0,0,0,.21-0.34,10.36,10.36,0,0,1,5.16-5.43,1.5,1.5,0,0,0,.32-0.23h0a1.15,1.15,0,0,0,0-1.63h0a1.09,1.09,0,0,0-.75-0.31" fill="#595a5c"/><path d="M638,81.28a1.5,1.5,0,1,0,1.82-1.1,1.5,1.5,0,0,0-1.82,1.1h0" fill="#595a5c"/><path d="M575.24,138.82l0.1,5.1a1.93,1.93,0,0,0,2,1.9h0l5-.11h0a1.16,1.16,0,0,0,.85-0.36,1.18,1.18,0,0,0,0-1.64h0a1.29,1.29,0,0,0-.35-0.2,10.65,10.65,0,0,1-5.32-5.1,2.08,2.08,0,0,0-.22-0.32h0a1.14,1.14,0,0,0-1.61,0l0,0a1.08,1.08,0,0,0-.31.75" fill="#595a5c"/><path d="M573.66,154.85l-0.12-5.1a1.94,1.94,0,0,0-2-1.9h0l-5,.11h0a1.17,1.17,0,0,0-.84.36,1.15,1.15,0,0,0,0,1.63h0a1.83,1.83,0,0,0,.34.23,10.2,10.2,0,0,1,3.12,2,10.44,10.44,0,0,1,2.2,3,1.69,1.69,0,0,0,.22.33h0a1.15,1.15,0,0,0,1.63,0h0a1.17,1.17,0,0,0,.32-0.75" fill="#595a5c"/><path d="M566.42,146l5.1-.11a1.94,1.94,0,0,0,1.9-2v0l-0.11-5h0a1.15,1.15,0,0,0-2-.81h0a1.23,1.23,0,0,0-.2.33,10.53,10.53,0,0,1-2.06,3.13,10.65,10.65,0,0,1-3,2.19,1.21,1.21,0,0,0-.32.23h0a1.16,1.16,0,0,0,0,1.64,1.07,1.07,0,0,0,.75.32" fill="#595a5c"/><path d="M582.45,147.62l-5.08.11a2,2,0,0,0-1.92,2l0.12,5h0a1.15,1.15,0,0,0,2,.8h0a1.42,1.42,0,0,0,.21-0.35,10.23,10.23,0,0,1,2.06-3.12,10.47,10.47,0,0,1,3-2.2,2.3,2.3,0,0,0,.33-0.21h0a1.16,1.16,0,0,0,0-1.64,1.18,1.18,0,0,0-.76-0.31" fill="#595a5c"/><path d="M573,146.48a1.5,1.5,0,1,0,1.82-1.1,1.5,1.5,0,0,0-1.82,1.1h0" fill="#595a5c"/><path d="M655.45,94.13l-2.31,4.55a2,2,0,0,0,.85,2.61l4.45,2.25h0a1.21,1.21,0,0,0,.92.09,1.17,1.17,0,0,0,.73-1.47h0a1,1,0,0,0-.2-0.33,10.49,10.49,0,0,1-1.77-3.3,10.25,10.25,0,0,1-.51-3.71,1.28,1.28,0,0,0,0-.38h0a1.15,1.15,0,0,0-1.44-.76h0a1.19,1.19,0,0,0-.64.52" fill="#595a5c"/><path d="M646.49,107.53L648.8,103a1.92,1.92,0,0,0-.81-2.59l0,0L643.5,98.1h0a1.16,1.16,0,0,0-1.65,1.38v0.06a2.33,2.33,0,0,0,.2.34,9.89,9.89,0,0,1,1.78,3.29,10.21,10.21,0,0,1,.51,3.71,1.79,1.79,0,0,0,0,.39h0a1.16,1.16,0,0,0,1.46.73,1.13,1.13,0,0,0,.62-0.51" fill="#595a5c"/><path d="M644.28,96.34l4.55,2.32a2,2,0,0,0,2.62-.85l2.26-4.45h0a1.15,1.15,0,0,0-1.37-1.65h-0.06a1,1,0,0,0-.34.2,10.47,10.47,0,0,1-3.3,1.77,10.14,10.14,0,0,1-3.7.51,1.51,1.51,0,0,0-.41,0h0a1.14,1.14,0,0,0-.76,1.42v0a1,1,0,0,0,.52.63" fill="#595a5c"/><path d="M657.69,105.31L653.13,103a1.94,1.94,0,0,0-2.61.85h0l-2.25,4.45h0a1.1,1.1,0,0,0-.09.91,1.15,1.15,0,0,0,1.45.74h0.06a1.82,1.82,0,0,0,.34-0.21,10.16,10.16,0,0,1,3.29-1.77,10.49,10.49,0,0,1,3.72-.51,1.9,1.9,0,0,0,.39,0h0a1.16,1.16,0,0,0,.74-1.46h0a1.07,1.07,0,0,0-.5-0.62" fill="#595a5c"/><path d="M649.85,99.83a1.5,1.5,0,1,0,2.12-.12,1.5,1.5,0,0,0-2.12.12h0" fill="#595a5c"/><path d="M567.38,120.94l-2.31,4.56a1.94,1.94,0,0,0,.85,2.61h0l4.46,2.25h0a1.22,1.22,0,0,0,.92.1A1.17,1.17,0,0,0,572,129v-0.07a1.15,1.15,0,0,0-.19-0.34,10.49,10.49,0,0,1-2.29-7,2,2,0,0,0,0-.39h0a1.14,1.14,0,0,0-2.09-.23" fill="#595a5c"/><path d="M558.43,134.33l2.3-4.55a1.93,1.93,0,0,0-.84-2.6h0l-4.47-2.26h0a1.15,1.15,0,0,0-1.64,1.37h0v0.06a1.12,1.12,0,0,0,.2.34,10.66,10.66,0,0,1,1.78,3.29,10.54,10.54,0,0,1,.5,3.71,1.76,1.76,0,0,0,0,.4h0a1.17,1.17,0,0,0,1.46.75,1.14,1.14,0,0,0,.63-0.53" fill="#595a5c"/><path d="M556.21,123.16l4.54,2.31a2,2,0,0,0,2.62-.84l2.26-4.46h0a1.15,1.15,0,0,0-1.36-1.65H564.2a1.48,1.48,0,0,0-.35.19,10.35,10.35,0,0,1-3.29,1.78,10.5,10.5,0,0,1-3.72.51,1.44,1.44,0,0,0-.38,0h0a1.17,1.17,0,0,0-.73,1.47,1.11,1.11,0,0,0,.52.62" fill="#595a5c"/><path d="M569.6,132.12L565,129.8a1.92,1.92,0,0,0-2.59.83v0l-2.26,4.45h0a1.21,1.21,0,0,0-.08.92,1.15,1.15,0,0,0,1.44.75h0.07a1.46,1.46,0,0,0,.35-0.2,10,10,0,0,1,3.29-1.78,10.32,10.32,0,0,1,3.71-.5,1.26,1.26,0,0,0,.39,0h0a1.16,1.16,0,0,0,.74-1.46,1.12,1.12,0,0,0-.52-0.63" fill="#595a5c"/><path d="M561.78,126.63a1.51,1.51,0,1,0,2.13-.1h0a1.51,1.51,0,0,0-2.12.11" fill="#595a5c"/><path d="M659.06,120.69l-4.26,2.81a2,2,0,0,0-.55,2.7l2.77,4.15h0a1.18,1.18,0,0,0,.76.53,1.15,1.15,0,0,0,1.36-.9h0a1.14,1.14,0,0,0,0-.4,11,11,0,0,1,.07-3.75,10.45,10.45,0,0,1,1.4-3.47,1.65,1.65,0,0,0,.15-0.37h0a1.15,1.15,0,0,0-.9-1.35,1.1,1.1,0,0,0-.81.14" fill="#595a5c"/><path d="M644.66,127.92l4.27-2.87a1.93,1.93,0,0,0,.56-2.67v0l-2.76-4.15h0a1.11,1.11,0,0,0-.75-0.52,1.16,1.16,0,0,0-1.37.9h0a2.38,2.38,0,0,0,0,.4,10.48,10.48,0,0,1-1.48,7.21,2.06,2.06,0,0,0-.16.36h0a1.18,1.18,0,0,0,.9,1.39,1.12,1.12,0,0,0,.8-0.14" fill="#595a5c"/><path d="M648.24,117.1l2.83,4.25a1.93,1.93,0,0,0,2.67.56h0l4.16-2.77h0a1.15,1.15,0,0,0-.37-2.11h0a1.06,1.06,0,0,0-.4,0,10.55,10.55,0,0,1-7.22-1.46,1.08,1.08,0,0,0-.36-0.16h0a1.17,1.17,0,0,0-1.37.9,1.12,1.12,0,0,0,.14.81" fill="#595a5c"/><path d="M655.48,131.5l-2.83-4.25a1.92,1.92,0,0,0-2.66-.56h0l-4.18,2.76h0a1.15,1.15,0,0,0,.38,2.11h0a1.82,1.82,0,0,0,.41,0,9.9,9.9,0,0,1,3.75.07,10.25,10.25,0,0,1,3.48,1.39,2.45,2.45,0,0,0,.36.16h0a1.16,1.16,0,0,0,1.36-.9,1.2,1.2,0,0,0-.13-0.8" fill="#595a5c"/><path d="M651.38,122.87a1.51,1.51,0,1,0,1.92.93,1.51,1.51,0,0,0-1.92-.93" fill="#595a5c"/><path d="M569.22,100.56l-4.29,2.81a1.93,1.93,0,0,0-.56,2.67v0l2.76,4.16h0a1.12,1.12,0,0,0,.75.52,1.15,1.15,0,0,0,1.36-.89h0v-0.06a1.15,1.15,0,0,0,0-.4,10.46,10.46,0,0,1,1.47-7.22,1.2,1.2,0,0,0,.15-0.35h0a1.15,1.15,0,0,0-1.71-1.23" fill="#595a5c"/><path d="M554.81,107.79l4.27-2.83a1.93,1.93,0,0,0,.55-2.67h0l-2.76-4.16h0a1.19,1.19,0,0,0-.75-0.52,1.14,1.14,0,0,0-1.35.87v0.08a1.69,1.69,0,0,0,0,.41,10.18,10.18,0,0,1-.08,3.73,10.05,10.05,0,0,1-1.4,3.48,1.92,1.92,0,0,0-.15.37h0a1.15,1.15,0,0,0,.88,1.37h0a1.12,1.12,0,0,0,.8-0.13" fill="#595a5c"/><path d="M558.4,97l2.83,4.26a1.94,1.94,0,0,0,2.69.55h0L568.07,99h0a1.15,1.15,0,0,0-.38-2.11h-0.06a1.67,1.67,0,0,0-.4,0A10.63,10.63,0,0,1,560,95.47a1.3,1.3,0,0,0-.37-0.16h0a1.15,1.15,0,0,0-1.36.89h0a1.12,1.12,0,0,0,.13.8" fill="#595a5c"/><path d="M565.64,111.37l-2.82-4.26a2,2,0,0,0-2.69-.54l-4.2,2.76h0a1.15,1.15,0,0,0,.38,2.11h0.07a1.24,1.24,0,0,0,.4,0,10.51,10.51,0,0,1,7.21,1.47,1.11,1.11,0,0,0,.37.16h0a1.17,1.17,0,0,0,1.37-.91,1.15,1.15,0,0,0-.14-0.8" fill="#595a5c"/><path d="M561.55,102.75a1.5,1.5,0,1,0,1.9.95,1.5,1.5,0,0,0-1.9-.95h0" fill="#595a5c"/><path d="M649.18,145.43l-5.1.36a1.94,1.94,0,0,0-1.78,2.08l0.36,5h0a1.21,1.21,0,0,0,.4.84,1.15,1.15,0,0,0,1.62-.14h0a1.61,1.61,0,0,0,.2-0.35,10.45,10.45,0,0,1,4.83-5.57,1.51,1.51,0,0,0,.32-0.25h0a1.15,1.15,0,0,0-.89-1.9" fill="#595a5c"/><path d="M633.09,144.66l5.09-.35a2,2,0,0,0,1.79-2.08l-0.36-5h0a1.17,1.17,0,0,0-.4-0.84,1.15,1.15,0,0,0-1.62.11v0.06a1.11,1.11,0,0,0-.19.35,10.52,10.52,0,0,1-1.9,3.22,10.63,10.63,0,0,1-2.92,2.34,2.85,2.85,0,0,0-.31.24h0a1.15,1.15,0,0,0,.12,1.62,1.12,1.12,0,0,0,.77.27" fill="#595a5c"/><path d="M641.51,137l0.42,5a1.93,1.93,0,0,0,2.06,1.79h0l5-.35h0a1.16,1.16,0,0,0,.7-2h0a2,2,0,0,0-.35-0.18,10.34,10.34,0,0,1-5.57-4.83,1.23,1.23,0,0,0-.24-0.31h0a1.16,1.16,0,0,0-1.91.9" fill="#595a5c"/><path d="M640.75,153.1L640.38,148a2,2,0,0,0-2.07-1.8l-5,.36h0a1.21,1.21,0,0,0-.83.41,1.16,1.16,0,0,0,.12,1.62h0.06a1,1,0,0,0,.36.19,10.51,10.51,0,0,1,5.57,4.84,1,1,0,0,0,.23.3h0a1.16,1.16,0,0,0,1.63-.12,1.13,1.13,0,0,0,.27-0.77" fill="#595a5c"/><path d="M641.42,143.58a1.49,1.49,0,1,0,1.19,1.75,1.49,1.49,0,0,0-1.19-1.75" fill="#595a5c"/><path d="M580.8,83.8l-5.1.38a1.93,1.93,0,0,0-1.77,2.07l0.36,5h0a1.23,1.23,0,0,0,.4.82,1.15,1.15,0,0,0,1.62-.11h0a1.77,1.77,0,0,0,.19-0.35,10.56,10.56,0,0,1,1.9-3.22A10.86,10.86,0,0,1,581.34,86a1.29,1.29,0,0,0,.32-0.23h0a1.16,1.16,0,0,0-.87-1.92" fill="#595a5c"/><path d="M564.69,83l5.09-.37a1.93,1.93,0,0,0,1.79-2.06h0l-0.37-5h0a1.11,1.11,0,0,0-.38-0.84,1.16,1.16,0,0,0-1.63.13h0a1.53,1.53,0,0,0-.19.35,10.64,10.64,0,0,1-1.9,3.22,10.46,10.46,0,0,1-2.93,2.35,1.49,1.49,0,0,0-.31.24h0a1.14,1.14,0,0,0,.11,1.61h0a1.1,1.1,0,0,0,.76.28" fill="#595a5c"/><path d="M573.12,75.38l0.37,5.09a1.93,1.93,0,0,0,2.06,1.79h0l5-.35h0a1.17,1.17,0,0,0,.72-2h0a1.29,1.29,0,0,0-.35-0.2,10.44,10.44,0,0,1-5.57-4.82,1.38,1.38,0,0,0-.25-0.32h0a1.15,1.15,0,0,0-1.92.89" fill="#595a5c"/><path d="M572.36,91.47L572,86.37a1.93,1.93,0,0,0-2.06-1.79l-5,.36h0a1.19,1.19,0,0,0-.82.39,1.17,1.17,0,0,0,.11,1.64h0a1.92,1.92,0,0,0,.35.18,10.48,10.48,0,0,1,3.22,1.91,10.63,10.63,0,0,1,2.37,3,1,1,0,0,0,.23.32h0a1.16,1.16,0,0,0,1.64-.11h0a1.18,1.18,0,0,0,.28-0.77" fill="#595a5c"/><path d="M573,81.95a1.5,1.5,0,1,0,1.17,1.77h0A1.51,1.51,0,0,0,573,81.95" fill="#595a5c"/><path d="M627.07,162.75l-4.55-2.32a1.94,1.94,0,0,0-2.61.85h0l-2.27,4.45h0a1.12,1.12,0,0,0-.07.91,1.15,1.15,0,0,0,1.45.74h0.07a1.08,1.08,0,0,0,.34-0.21,10.68,10.68,0,0,1,3.29-1.77,10.37,10.37,0,0,1,3.72-.52,1.25,1.25,0,0,0,.4,0h0a1.14,1.14,0,0,0,.75-1.43v0a1.12,1.12,0,0,0-.51-0.62" fill="#595a5c"/><path d="M613.66,153.79l4.56,2.31a1.93,1.93,0,0,0,2.6-.84h0l2.26-4.46h0a1.11,1.11,0,0,0,.08-0.91,1.16,1.16,0,0,0-1.46-.74h-0.06a0.88,0.88,0,0,0-.34.2,10.43,10.43,0,0,1-7,2.28,1.6,1.6,0,0,0-.4,0h0a1.16,1.16,0,0,0-.74,1.46,1.09,1.09,0,0,0,.51.63" fill="#595a5c"/><path d="M624.84,151.57l-2.31,4.55a1.93,1.93,0,0,0,.84,2.6h0l4.45,2.25h0a1.16,1.16,0,0,0,1.66-1.37v-0.06a2.39,2.39,0,0,0-.2-0.35,10.13,10.13,0,0,1-1.79-3.29,10.32,10.32,0,0,1-.5-3.7,1.16,1.16,0,0,0,0-.4h0a1.14,1.14,0,0,0-1.43-.74h0a1,1,0,0,0-.63.52" fill="#595a5c"/><path d="M615.93,165l2.31-4.55a2,2,0,0,0-.86-2.62l-4.45-2.25h0a1.22,1.22,0,0,0-.91-0.08,1.17,1.17,0,0,0-.74,1.46V157a1.77,1.77,0,0,0,.21.34,10.45,10.45,0,0,1,1.77,3.3,10.17,10.17,0,0,1,.52,3.71,1.68,1.68,0,0,0,0,.39h0a1.15,1.15,0,0,0,1.44.75h0a1.08,1.08,0,0,0,.63-0.51" fill="#595a5c"/><path d="M621.37,157.14a1.5,1.5,0,1,0,.11,2.13,1.5,1.5,0,0,0-.11-2.13" fill="#595a5c"/><path d="M600.21,74.68l-4.55-2.3a1.94,1.94,0,0,0-2.61.85h0l-2.25,4.45h0a1.11,1.11,0,0,0-.09.91,1.14,1.14,0,0,0,1.43.74h0.09a1.12,1.12,0,0,0,.35-0.2,10.58,10.58,0,0,1,7-2.29,1.76,1.76,0,0,0,.38,0h0a1.16,1.16,0,0,0,.75-1.45,1.2,1.2,0,0,0-.52-0.64" fill="#595a5c"/><path d="M586.82,65.74L591.37,68a1.94,1.94,0,0,0,2.61-.85h0l2.25-4.44h0a1.15,1.15,0,0,0-1.38-1.7h0a1,1,0,0,0-.35.21A10.76,10.76,0,0,1,591.2,63a10.38,10.38,0,0,1-3.7.52,1.75,1.75,0,0,0-.39,0h0a1.16,1.16,0,0,0-.75,1.45,1.12,1.12,0,0,0,.53.64" fill="#595a5c"/><path d="M598,63.51L595.68,68a2,2,0,0,0,.85,2.61l4.4,2.26h0a1.15,1.15,0,0,0,1.65-1.36V71.48a1.91,1.91,0,0,0-.21-0.34,10.41,10.41,0,0,1-2.29-7,1.63,1.63,0,0,0,0-.4h0a1.18,1.18,0,0,0-1.46-.75,1.21,1.21,0,0,0-.65.52" fill="#595a5c"/><path d="M589,76.91l2.31-4.55a2,2,0,0,0-.85-2.6L586,67.5h0a1.07,1.07,0,0,0-.91-0.08,1.12,1.12,0,0,0-.74,1.4v0.11a1.17,1.17,0,0,0,.22.34,10.67,10.67,0,0,1,2.28,7,1.11,1.11,0,0,0,0,.4h0a1.14,1.14,0,0,0,1.43.75h0a1.09,1.09,0,0,0,.64-0.52" fill="#595a5c"/><path d="M594.51,69a1.5,1.5,0,1,0,.11,2,1.5,1.5,0,0,0-.11-2" fill="#595a5c"/><g id="FRONT_MILK_SPLASHES" data-name="FRONT MILK SPLASHES"><path d="M685,155.58c-3.25,3.82-21.6,22.07-25.83,24.69-0.49.31-10.76,6-10.72-4.69,0-2.14-.39-4.53-0.36-6.7,0.14-7.69-.67-14.12-5.2-16a7.64,7.64,0,0,0-7.2.91c-8.51,7-5,32.48-19.1,43C605,205.45,588.3,207,571.86,201.1c-19.41-7-35.88-20.35-35.88-20.35s34,67.61,63.48,67.61c27.68,0,60.17-34.52,66.72-42,10.82-12.43,9.47-26,12.56-33.92C681.39,165.67,686.08,154.33,685,155.58Z" fill="#fff"/><path d="M643.33,144.6a2.78,2.78,0,0,0,2.55-1.27,5.08,5.08,0,0,0,.45-0.73,2.92,2.92,0,0,1,.29-0.38c0.27-.28.6-0.5,0.86-0.77a8.71,8.71,0,0,1,1.11-1,19.62,19.62,0,0,1,2-1.36,6.52,6.52,0,0,0,.87-0.73c0.4-.31.72-0.7,1.09-1a7.51,7.51,0,0,0,1.38-1.87,6.31,6.31,0,0,0,.81-2.3,5.58,5.58,0,0,0-1.27-4.06,4.39,4.39,0,0,0-4-1.3,6.62,6.62,0,0,0-2,.66,6.46,6.46,0,0,0-1.8,1.6,15,15,0,0,0-2.51,4.26c-0.33.69-.72,1.34-1,2.07a19,19,0,0,0-.69,2.39,11.9,11.9,0,0,0-.2,1.82,4,4,0,0,0,.16,1.73A2.88,2.88,0,0,0,643.33,144.6Z" fill="#fff"/></g><path d="M585.93,79.43c-2.26-3.55-5.56-6.11-7.49-7.71-3.6-3-16.82-8.32-16.82-8.32s-5.31-2.06-3.75-8.65c0.61-2.58,2.16-4.22,4.2-4.62,1-.19,14.55-28,14.55-28-8.38-6.84-19.84-7.63-25.59-8.62-1.76-.3-17.84-1.35-25.11-0.44-8,1.19-17.62,1.56-30,6.34-7,2.69-20.22,10-23.37,12.11l-0.36.24c-15.34,10.23-28.64,26.48-37.87,41a177.16,177.16,0,0,0-9.91,18.54c-2.2,5.45-7.83,19-8.25,27.67,0,2.89,1.41,2.79,2.56,2.26,5.68-4.07,18.14-7.68,20.14-8.25,1.39-.4,6-2.06,6-2.09,3.12-1.72,6.18-16.67,15-27,10.44-12.24,22.59-15,33.31-16a20.82,20.82,0,0,1,12.76,4.24c17,14,20,13.55,33.35,12.39A46.71,46.71,0,0,1,559,86.44l8.61,2.37c4.66,1.45,11.49,7.32,12.93,7.51,2.83,0.37,4.6-1.54,6-3.06s1.59-6.3,1.36-8.2A13.44,13.44,0,0,0,585.93,79.43Z" fill="#fff"/><path d="M293.51,385.27a12.53,12.53,0,0,1-.5,2.32,19.32,19.32,0,0,1-7.13,10.11c-6.09,4.5-14.72,5-22,4.49-6.85-1.92-10.16-5.67-12-9.14-3-4.28-4-8.81-5.47-12.89-1-3.66-1.48-15.66,1.76-22.2,1.54-3,4-8.5,7.52-10.8,1.71-1.67,6.65-3.93,9.79-4.5,12.89-2.33,17,3,18.85,4.46a13,13,0,0,1,4.15,5.89c0.58,1.37,1.79,3.23,1.26,4.74-0.84,2.2-4,2-5.79,2.53a31.34,31.34,0,0,1-4.61,1.09c-1.28.09-2.72,0.76-3.94,0-0.87-.53-1.26-1.61-2-2.31a5.51,5.51,0,0,0-5.57-1.36c-4.69,1.66-5.23,6.8-5.58,11.51,0.25,1.9.08,3.69,0.33,5.59,0.59,4.51,2.25,10.41,6.72,12.64,4,1.41,8.8-1.63,8.61-6.2,0.35-1.66,1.42-2,2.94-2.15,1.36-.1,2.77-0.36,4.11-0.54,2-.26,6.83-1.94,8.17.3a6,6,0,0,1,.59,2A23,23,0,0,1,293.51,385.27Z" fill="#fff"/><path d="M339.31,396.13a5.06,5.06,0,0,1-3-1.19c-0.77-.91-0.61-2.28-0.83-3.39a16.49,16.49,0,0,1-.35-3.42c-0.18-3.27,0-6.56-.15-9.74-0.06-1,.34-2.42-0.58-3.24-0.68-.68-1.86-0.45-2.73-0.24a24.71,24.71,0,0,1-6.86.31c-1.85-.29-3.9.3-5.82,0.25-0.8,0-2.67-.57-3.26.34s0.3,2.54.35,3.42a25.64,25.64,0,0,1,0,3.28c0.15,2.63.38,5.33,0.7,8,0.17,1.67.93,5.14-.76,6.36s-4.67.82-6.66,0.94c-1.43.08-2.86,0.24-4.3,0.24-1,0-2.78.32-3.39-.53s-0.34-1.74-.39-2.62-0.12-2.15-.19-3.27l-0.42-7.33c-0.27-6.22-.61-10.84-0.92-16.17-0.32-5.58-.46-10.92-0.89-15.7-0.22-2.54-.44-5-0.58-7.48-0.18-1.83-1-4,0-5.68s5.85-1.13,7.52-1.23c2-.11,5.61-1.2,6.76.82,1.14,1.85,1,4.18,1.24,6.32,0.15,2.71.47,5.41,0.62,8.12a39.13,39.13,0,0,0,.32,4.3c0.36,2.14,3,1.27,4.63,1.34a49.49,49.49,0,0,1,5,.28l6.69-.38c1-.06,1.68.06,2-1a17.21,17.21,0,0,0,.09-4.08c0-1.52,0-3-.09-4.47l-0.34-6v-2.72a8.23,8.23,0,0,1-.08-2.79c0.4-1.38,2.08-1.4,3.27-1.46,1.43-.16,3-0.17,4.38-0.25,2.31-.13,5.31-0.86,6.87,1.37,1.13,1.61.81,4.35,0.92,6.34,0.13,2.23.3,3.9,0.43,6.21,0.32,5.66.55,11.16,0.85,16.34,0.27,4.7,1.6,14.14,1.6,14.14,0.26,1.82.38,3.82,0.56,5.72,0.14,2.47.94,5.22,0.11,7.51l-0.22.41c-0.56,1.39-1.36,1.44-2.87,1.52l-2.63.15A45.83,45.83,0,0,1,339.31,396.13Z" fill="#fff"/><path d="M407.53,397.49c-1.44-.07-2.87,0-4.31-0.12l-2.87-.13a4,4,0,0,1-3.49-2.32,35.25,35.25,0,0,1-.93-4.2c-0.19-1-.54-2.1-0.81-3.15a19.49,19.49,0,0,0-1-3.72,3.44,3.44,0,0,0-.35-1c-0.61-.67-1.58-0.31-2.3-0.34-2.07-.25-4-0.58-6.12-0.68-1.36-.06-2.63,0-3.91,0-0.88,0-2.21-.5-3,0-0.91.68-1.4,2.73-1.77,3.83L376.13,387a34.4,34.4,0,0,1-1.46,4,17.11,17.11,0,0,1-1.65,2.88,4.47,4.47,0,0,1-2.3,1.49,13.74,13.74,0,0,1-4.49.27l-4.62-.21c-1.51-.07-3.28,0-4.25-1.31-0.68-.83-0.14-2.08.06-3,0.21-1.19.9-2.2,1.19-3.38a21.38,21.38,0,0,1,2.09-5.58A54,54,0,0,1,365.56,370c1.65-4.64,3.68-8.86,5.33-13.5l1.63-4.16a20.82,20.82,0,0,0,.89-2l2.61-6.51c0.36-.94.8-1.88,1.09-2.91a7,7,0,0,1,1.67-3.44c1.5-1.45,4-1,5.79-.93a14.62,14.62,0,0,0,2.63.12,14.46,14.46,0,0,1,2.54.35,17.34,17.34,0,0,0,2.88,0c1.6,0,3.52-.08,4.91.86a5.27,5.27,0,0,1,1.06,1.25,17.87,17.87,0,0,1,.88,1.72,10.41,10.41,0,0,1,.84,2.67,28.62,28.62,0,0,1,.75,2.83,17.59,17.59,0,0,0,.5,3c1.28,3.41,2.92,9.64,2.92,9.64l2.42,10.1c0.75,2.83,1.55,6.22,2.38,9.06,0.78,3.87,1.59,7.26,2.39,10.57,0.26,1.21.68,2.51,1,3.72a7.81,7.81,0,0,1-.34,4.06v0.08C411.5,398,408.8,397.55,407.53,397.49Zm-24.28-29.94a2.32,2.32,0,0,0,1.28.06,16.56,16.56,0,0,1,2,.09c1.12,0,2.92.69,4,.18,0.74-.37.38-1.26,0.25-1.91-0.33-1.53-.66-3.15-1.06-4.76-0.47-1.86-1.1-3.81-1.5-5.74a16.31,16.31,0,0,0-.31-1.93c-0.21-.57-0.17-1.45-0.72-1.79-0.83.6-.74,2.12-1,3.07,0,0-.65,3.8-1.22,5.7-0.47,1.58-.87,3.24-1.42,4.81-0.11.55-.7,1.41-0.41,2A0.43,0.43,0,0,0,383.25,367.55Z" fill="#fff"/><path d="M449.58,404l-16.27-2.84c-1.09-.27-1.81-0.32-2.83-0.49-2-.34-3.92-0.76-6-1.12-1.87-.41-5.57-0.57-6.45-2.5-0.63-1.49.17-3.78,0.45-5.35,1.33-8.11,2.67-16.22,4.22-24.21,1.46-5.09,1.7-9.75,2.56-14.7,0.44-2.52,1.18-4.9,1.7-7.4,0.39-1.79.27-3.84,2-5,1.19-.77,2.69-0.1,3.84.27a37.41,37.41,0,0,0,5.11.89c2,0.36,4.75.18,5.85,2.24,0.87,1.53,0,4-.4,5.52-0.41,2.36-1,4.69-1.48,7.11-1,5.08-2.09,8.71-3,13.9l-2.3,13.21c-0.14.79-1.1,2.56-.25,3.28,0.51,0.33,2.09.12,2.62,0.3l15.41,2.69c0.86,0.15,1.64.37,2.42,0.5,1,0.18,1.88-.08,2.72.64,1.63,1.34.23,4.74-.15,6.45a27,27,0,0,0-.7,3.52c-0.14,1.27-.2,2.56-1.26,3.51a3.37,3.37,0,0,1-2.21.59C453.36,405.16,451,404.34,449.58,404Z" fill="#fff"/><path d="M496.09,414.3L479.93,411c-1.08-.3-1.8-0.36-2.82-0.56-2-.39-3.9-0.86-5.93-1.27-1.86-.45-5.56-0.7-6.39-2.66-0.6-1.5.27-3.77,0.58-5.34,1.53-8.08,3.06-16.15,4.82-24.1,1.58-5.06,1.94-9.7,2.92-14.63,0.5-2.5,1.3-4.87,1.88-7.35,0.44-1.78.36-3.83,2.13-5,1.2-.74,2.69,0,3.83.36a37.34,37.34,0,0,0,5.09,1c2,0.41,4.74.3,5.79,2.38,0.83,1.55-.14,4-0.53,5.51-0.47,2.35-1.09,4.66-1.66,7.07-1.17,5-2.3,8.65-3.33,13.82l-2.63,13.15c-0.16.78-1.16,2.54-.33,3.27,0.5,0.34,2.08.17,2.61,0.36l15.34,3.06c0.86,0.17,1.63.41,2.41,0.56,1,0.2,1.88,0,2.71.7,1.6,1.38.11,4.74-.31,6.45a27,27,0,0,0-.78,3.5c-0.17,1.27-.27,2.55-1.35,3.47a3.37,3.37,0,0,1-2.22.53C499.85,415.46,497.5,414.58,496.09,414.3Z" fill="#fff"/><path d="M533.8,420.13l-6.41-.8a58.82,58.82,0,0,0-7.41-1.17c-2.37-.38-4.71-0.27-6.66-2-2.09-2-.61-6.67-0.31-9.12l2.79-22.33a62,62,0,0,1,1.64-9.28,33.36,33.36,0,0,0,.34-4,43.73,43.73,0,0,0,.64-4.5,9.72,9.72,0,0,1,.91-4.71,7.78,7.78,0,0,1,2.33-2.52c3-2.2,8.4-.32,11.73.1l17.5,2.18c1.66,0.21,3.26.32,4.91,0.61,1,0.21,2.92.44,3.53,1.33,1.1,1.5.61,4.1,0.41,5.76s-0.21,3.59-1.45,4.56c-2.33,1.88-6.52.71-9.3,0.45s-5.52-.85-8.29-1.2a28.64,28.64,0,0,1-4.5-.64c-1-.29-2.34-0.61-3,0.5s-0.38,3-.43,4.13-0.91,3.42.33,4.46c0.81,0.58,2.2.44,3.15,0.55l9.82,1.23c1.5,0.19,5.45.12,6.4,1.52,0.49,0.62.32,2,.3,2.77a21.26,21.26,0,0,1-.32,3.18c-0.18,1.43,0,4.26-1.65,4.86-1.93.64-4.89-.13-6.87-0.37a82.06,82.06,0,0,1-9.82-1.23c-2.19-.51-3.42-0.27-3.74,2.27-0.29,2.3-1.06,4.61-1,7,0.11,1.06.2,2.28,1.27,2.73,1.59,0.76,4.18.68,5.92,0.9a46.88,46.88,0,0,0,8.79,1.1c1.58,0.2,3.26.33,4.84,0.52,1.12,0.06,3.19.24,3.87,1.21,1.25,1.6.19,4.93,0,6.67-0.14,1.11,0,3.3-.79,4.4l-0.38.44c-1.06.75-3.15,0.09-4.41-.07l-5.25-.49C540.07,420.83,536.93,420.52,533.8,420.13Z" fill="#fff"/><path d="M567.36,422.14a6.81,6.81,0,0,1-.23-2.55c0-1.44.09-2.79,0.18-4.23,0.09-2.47,0-5,0-7.5,0-5.43-.19-9.26-0.25-13.81-0.07-2.07-.06-4.15,0-6.14,0-3.27,0-6.54.13-9.73,0.18-3.35-.52-6.71-0.35-10,0.17-1.28-.15-2.63.9-3.59,1-.79,2.08-0.55,3.27-0.54l12,0.06c2.55,0,4.39.18,5.33,2.74,0.39,1,1,1.68,1.42,2.64l1.5,3.28c1,1.84,3.48,6.4,3.48,6.4s3.16,6.64,4.5,10c1.89,4.16,4.82,9.92,4.82,9.92v0.64c0.1-3.75.12-7.26,0.13-10.53-0.06-3.75,0-7.5,0-11.25a55.12,55.12,0,0,0,0-7.26c-0.15-1.76-.22-3.19.82-4.7,1.69-2.47,3.92-1.66,6.39-1.72,2.23,0,7.9-1,8.61,2a29.09,29.09,0,0,1,.52,7.9c-0.09,1.44-.17,2.87-0.18,4.23-0.18,4.87-.29,9.81-0.31,14.68L620,408.4c0,2.55.37,5.19,0.36,7.82v0.4c0,1.75.14,4-.51,5.58s-2.08,2-3.6,1.9-3.11.06-4.63,0.06h-3.75a6.42,6.42,0,0,1-3.75-.82c-0.08,0-.8-0.24-0.08-0.24a11.14,11.14,0,0,1-2.93-4.72c-0.86-2.56-2.45-4.24-3.64-6.64-2.53-4.32-4.35-8.4-7.12-12.72-2.21-3.84-4.66-8.64-6.64-12.56v4.63c0.22,3.67.12,7.66,0.18,11.65,0.06,3.83.28,7.66,0.42,11.49a26.36,26.36,0,0,0,.46,4.39c0.31,1.84,0,3.67-1.62,4.78-1.12.79-2.8,0.62-4.07,0.62h-5.27C571.58,424,568.39,424.38,567.36,422.14Z" fill="#fff"/><path d="M676.85,401.27s-1,14.9-19,17.86c-2.52.43-7.8,1.24-10.32,0.21a17.24,17.24,0,0,1-5-1.67c-5.52-3-9.47-8.59-11.26-14.44-0.9-2.92-2.21-5.86-2.55-8.87-0.19-2.07-.38-4.14-0.41-6.24a33.28,33.28,0,0,1,1.7-12.43c1.92-4.94,4.84-10.61,9.56-13.35a22.26,22.26,0,0,1,7.31-2.21c15.18-2.57,18.14,3.41,19.41,3.76,0.76,0.19,1.89,2.11,2.39,2.67a17.74,17.74,0,0,1,2.15,4.57c0.37,1.23,1.52,2.74,1.1,4.1-0.39,1-2.34,1.45-3.35,1.7-1.55.42-3.27,0.31-4.8,0.81a15,15,0,0,1-4.2.55c-2.26.06-2.38-1.14-3.88-2.34a6.27,6.27,0,0,0-6.73-.56c-2.61,1.33-3.19,3.61-3.72,6.21a13.91,13.91,0,0,0-.46,4.45c0.35,2,.23,4.73.57,6.7,0.68,4,2.66,10,7.45,12,3.06,0.86,5.52-.37,7.31-2.69,0.88-1,3-5,0-4.77-1.27.13-3.32,1.45-4.38,0.42-0.58-.55-0.82-2-1.11-2.73a9.07,9.07,0,0,1-.73-4.33c0.13-1.15.84-1.28,1.94-1.46a48.15,48.15,0,0,0,5.77-1.3,67.25,67.25,0,0,1,6.83-1.24c1.67-.2,3-0.75,4.74-0.23a4.07,4.07,0,0,1,2.58,2.8l0.7,2.71a19.4,19.4,0,0,1,.45,3.65A30.14,30.14,0,0,1,676.85,401.27Z" fill="#fff"/><path d="M714.61,402.87l-6,2.49a59,59,0,0,0-7,2.66c-2.24.85-4.22,2.11-6.8,1.53-2.78-.66-3.84-5.49-4.79-7.77L681.38,381a62,62,0,0,1-3.18-8.88,33.27,33.27,0,0,0-1.68-3.62,43.69,43.69,0,0,0-1.68-4.23,9.73,9.73,0,0,1-1.55-4.54,7.79,7.79,0,0,1,.77-3.35c1.52-3.4,7.14-4.44,10.23-5.73l16.28-6.78c1.55-.64,3-1.33,4.57-1.9,1-.32,2.76-1.06,3.73-0.6,1.7,0.76,2.57,3.25,3.21,4.8s1.6,3.22,1,4.68c-1.09,2.79-5.31,3.85-7.86,5s-5.22,2-7.8,3.07a28.67,28.67,0,0,1-4.23,1.68c-1,.25-2.33.63-2.39,2,0,1.14,1.17,2.8,1.67,3.8,0.49,1.18.91,3.43,2.5,3.71,1,0.11,2.12-.71,3-1.08l9.13-3.81c1.4-.58,4.79-2.6,6.32-1.85,0.73,0.3,1.25,1.55,1.63,2.26a21.32,21.32,0,0,1,1.3,2.92c0.55,1.33,2.07,3.72,1,5-1.36,1.52-4.31,2.31-6.15,3.08a82.11,82.11,0,0,1-9.13,3.8c-2.15.64-3.11,1.47-2.12,3.82,0.89,2.14,1.37,4.53,2.66,6.59,0.62,0.87,1.3,1.88,2.46,1.74,1.76-.13,4-1.48,5.59-2.15a46.86,46.86,0,0,0,8.18-3.41c1.47-.61,3-1.33,4.46-2,1-.5,2.89-1.37,4-0.87,1.88,0.77,2.61,4.19,3.28,5.81,0.43,1,1.63,2.87,1.5,4.22l-0.11.57c-0.55,1.18-2.69,1.64-3.87,2.13l-4.8,2.17C720.4,400.37,717.55,401.65,714.61,402.87Z" fill="#fff"/><path d="M63.09,195A68,68,0,0,1,47,192a49.53,49.53,0,0,1-6.85-2.51c-3.63-1.68-6.85-4.47-9.78-7.13-3.07-2.93-6-6-7.83-9.92-2.24-5-4.19-9.78-5-14.81-1.82-10.62-1.82-20.4,1.82-29.49,2.38-7.55,6.85-18.59,16.07-27.11,2.66-2.38,6.15-4.05,8.94-5.87s5.54-2.41,8.54-3.38a33.69,33.69,0,0,1,7.41-1h7c7.13,0,13-.56,16.91,1.12,8.24,3.49,16.91,5.87,22.08,13.28A168.92,168.92,0,0,1,116.19,122c5.73,11.88,5,24.18,3.49,32.28-1.68,13.14-8.94,22.92-17.75,30.47-2.1,1.82-5.45,2.93-7.83,4.61-4.61,3.21-10.48,4.61-16.21,5.31A74.62,74.62,0,0,1,63.09,195ZM88.24,126.2c-4.19-6.57-9.78-7.13-17.19-8.66-4.89-.84-10.06-1-14.25,2.24-3.77,2.79-8.66,5.87-11,9.92a25.57,25.57,0,0,0-2.93,7c-2.38,9.08-.42,19.84,6.15,26.69s19.29,7,27.67,4.19c8.24-2.52,17-9.64,18.17-18.31S92.85,133.33,88.24,126.2Z" fill="#fff"/><path d="M191.1,195c-2.1,0-2.8-.28-4.89-0.14s-4.05.42-6-.56c-2.38-1.26-3.21-4.47-4.05-6.85s-6.71-15.09-8.8-19.56c-1.68-3.49-3.49-6.57-5.31-10.06a28.67,28.67,0,0,0-5.73-7.41c-0.28-.28-0.7-0.28-2-1.26l-0.14,19.7v13c0,3.63,1,8.24-1.54,11.46-2.52,2.94-8.11,1.68-11.32,1.68-2.38,0-4.47,0-6.71.14-1.82,0-4.19-.28-5.31-1.82-1.54-2-1.4-4.89-1.26-7.27,0.28-2.94.14-5.87,0.14-8.94V165.89c0-1.68.28-13.42,0.28-17.61,0.14-7.41-.42-31.44-0.42-36.33,0-2.24-.42-13,0.14-16.21,0.28-2.38,1.12-4.61,3.63-5a59.32,59.32,0,0,1,8.39-.42c8.24,0,16.49.42,24.74,0.42h10s7.41,0.7,9.78,1.26c5.45,1.26,7.55,1.68,11.74,5.17a51.91,51.91,0,0,1,4.33,4.47c3.63,5.59,4.05,12.86,3.77,19.42-0.28,3.35-.28,6.43-1.4,9.78A28.07,28.07,0,0,1,198,140.2c-1.68,2.1-3.49,2.66-6,3.63a59.58,59.58,0,0,1-9.78,2.66c-0.42,0-2.1.14-2.24,0.7-0.56,1.68,1.12,4.19,2,5.45,1.26,2.1,4.75,10.06,6.29,12.44,2,2.94,6.85,12.16,8.39,14.25,2.52,3.49,6.57,7.41,6.57,12.16a3.29,3.29,0,0,1-.28,1.12C201.44,196.22,193.75,195,191.1,195Zm-15.51-69.73c3.49-1.54,4.33-2.66,4.33-6.43a9.82,9.82,0,0,0-.84-4.89c-2.1-4.33-6.57-4.75-10.9-4.75-2.94,0-11.18-2.38-13,.84-0.7,1.26-1.54,11.46-.14,14.11,1.82,3.77,8.94,2.24,12.3,2.24C169.86,126.34,173.21,126.2,175.59,125.23Z" fill="#fff"/><path d="M253.56,195.24H242.24a103.22,103.22,0,0,0-13.14-.42c-4.19-.14-8.24.56-12-2.1-4.05-2.93-2.52-11.46-2.52-15.79V137.52a108.65,108.65,0,0,1,.84-16.49c0.28-2.38-.28-4.61-0.28-7,0-2.93.42-5.17,0.14-8s-0.56-5.73.56-8.38a13.65,13.65,0,0,1,3.49-4.89c4.75-4.47,14.53-2.38,20.4-2.38h30.88c2.93,0,5.73-.14,8.66,0,1.82,0.14,5.17.14,6.43,1.54,2.24,2.38,2,7,2,9.92,0,2.66.42,6.29-1.54,8.24-3.63,3.77-11.18,2.66-16.07,2.8s-9.78-.28-14.67-0.28a50.2,50.2,0,0,1-8-.14c-1.82-.28-4.19-0.56-5.17,1.54-0.84,1.82,0,5.31.14,7.27,0,2.24-.84,6.15,1.54,7.69,1.54,0.84,3.91.28,5.59,0.28h17.33c2.66,0,9.5-1,11.46,1.26,1,1,1,3.35,1.12,4.75a37.37,37.37,0,0,1,.14,5.59c0,2.52.84,7.41-1.82,8.8-3.21,1.54-8.52.84-12,.84-5.59.14-11.6,0.56-17.33,0-3.91-.42-6,0.28-6,4.75,0,4.05-.84,8.24-0.14,12.44,0.42,1.82.84,3.91,2.79,4.47,2.93,1,7.41.28,10.48,0.28,5.17,0.7,10.34.28,15.51,0,2.79,0,5.73-.14,8.52-0.14,2-.14,5.59-0.28,7,1.26,2.52,2.52,1.4,8.52,1.4,11.6,0,2,.7,5.73-0.42,7.83l-0.56.84c-1.68,1.54-5.45.84-7.69,0.84l-9.22.28C264.6,195,259.15,195.24,253.56,195.24Z" fill="#fff"/><path d="M336.29,195A68,68,0,0,1,320.22,192a49.53,49.53,0,0,1-6.85-2.51c-3.63-1.68-6.85-4.47-9.78-7.13-3.07-2.93-6-6-7.83-9.92-2.24-5-4.19-9.78-5-14.81-1.83-10.63-1.83-20.44,1.79-29.52,2.38-7.55,6.85-18.59,16.07-27.11,2.66-2.38,6.15-4.05,8.94-5.87s5.59-2.38,8.52-3.35a33.69,33.69,0,0,1,7.41-1h7c7.13,0,13-.56,16.91,1.12,8.24,3.49,16.91,5.87,22.08,13.28A168.92,168.92,0,0,1,389.4,122c5.73,11.88,5,24.18,3.49,32.28-1.68,13.14-8.94,22.92-17.75,30.47-2.1,1.82-5.45,2.93-7.83,4.61-4.61,3.21-10.48,4.61-16.21,5.31A74.62,74.62,0,0,1,336.29,195Zm25.15-68.76c-4.19-6.57-9.78-7.13-17.19-8.66-4.89-.84-10.06-1-14.25,2.24-3.77,2.79-8.66,5.87-11,9.92a25.57,25.57,0,0,0-2.93,7c-2.38,9.08-.42,19.84,6.15,26.69s19.29,7,27.67,4.19c8.24-2.52,17-9.64,18.17-18.31s-2-15.94-6.61-23.07h0Z" fill="#fff"/><path d="M209.93,307.15l-7.28,4.9c-2.46,1.65-9.75,4-12.21,4.8a96.46,96.46,0,0,1-11.81,2.88c-2.75.41-4.95,1.24-7.82,1.24-4.54,0-8.92.69-13.46,0.69a15,15,0,0,1-6.45-1.38c-4.12-1.92-4.12-5.62-4.53-9.6-0.69-5.22-.28-76.33-0.69-80a22.63,22.63,0,0,1,.28-6c0.41-1.92,1.37-4.12,3.15-5.08s4.39-.69,6.18-0.82a191.38,191.38,0,0,1,21.28.41c7.14,0.82,24.44,5.63,32.53,12.22,5.77,5.63,10.71,13.86,13.87,20.32s3.29,12.22,3.29,18.81C227.09,283.54,222.93,298.23,209.93,307.15Zm-26.09-61.64a25,25,0,0,0-4.39-.69c-1.24,0-3.16-.69-4.26,0-1.37,1-1,2.74-.83,4.12,0.42,6-.27,12.08-0.27,18.26,0,4.66.14,9.47,0.27,14.27,0.15,2.74.15,5.63,0.15,8.51-0.15,1.78-.55,3.57,1.23,4.67,3.16,2.06,8-1,11-2.2a25.63,25.63,0,0,0,8.51-5.63c3.29-3.29,4.95-9.88,4.95-15.51s-0.83-15.51-6.59-21.28A25.36,25.36,0,0,0,183.84,245.51Z" fill="#fff"/><path d="M262.71,311c-8.44-1.63-16.88-6.26-19.87-14.7-4.35-8.31-4.77-17.15-4.77-25.59V219.87c0-1.36.14-2.72,0.14-4.22s-0.14-2.85.68-3.95a5.94,5.94,0,0,1,2.18-1.36,16.14,16.14,0,0,1,3.67-.14H254c3.13,0,8.58-.95,10.76,1.91,1.77,2.31,1,4.5,1.08,7.08,0,3.13.14,6.26,0.27,9.53,0.27,6.4.54,12.8,0.68,19.2,0.14,3.54.41,21.24,0.14,24.09-1.22,17.83,11,16.88,11.57,16.88,9.8,1.36,10.76-8.71,10.76-8.71s0.54-4.63,1.36-8.17c0.55-6.4,2-27.9,2-36.21,0-6.94.13-13.88,0.54-20.83a5.87,5.87,0,0,1,.82-3.68c1.23-1.5,4-1.23,5.86-1.09H314c1.64,0.14,3.68,0,4.77,1.63,0.13,0,.13,0,0.13.14,0.81,1.22.68,2.86,0.81,4.35,0.14,1.77.14,3.53,0.14,5.31,0,0-.82,14.84-0.82,17s-1.09,31.31-1.5,36.48c-0.13,3-.41,6-0.68,8.85-1.63,15.52-12.8,22.19-12.8,22.19C292.79,315.44,265.71,311,262.71,311Z" fill="#fff"/><path d="M526.72,319.25c-0.42-2.17-2.51-3.92-4-5.55-1.81-2.16-32.15-33.53-34.11-35.42a78.77,78.77,0,0,1-11.46-12c0.14,0,10.48-8.38,11.31-8.92a148,148,0,0,0,13.7-10.82c5-4.46,9.79-7.84,14.83-12.44,1.53-1.35,3.21-2.71,4.75-4.19,1.81-1.76,7.69-6.76,3.49-8.79-2.66-1.35-6.15-.68-9-0.68H507.5c-2.94,0-6,.54-9,0.81-3.92.4-6.29,2.71-9.09,5.14-2.94,2.71-5.87,5.41-9,8-3.63,3.11-12.72,10.55-13.56,10.55V218.47c-14.54-1.4-25.62-10-29.08-12.93v0.52c0,4.46.42,31.1,0.42,35.57v23.66c0,16.22.28,32.45,0,48.67-0.14,8.51,12.72,6.35,18.46,6.35,2.51,0,6.42,1.09,7.41-2.16,1.26-3.78,1.26-8.38,1.54-12.3l0.42-6.07c0.15-2.43,0-4.86.15-7.3,2.23,0.41,22.92,23.66,24.32,24.6,2.23,1.62,3.36,4.06,6.43,4.6,2.51,0.54,5.31.14,7.83,0.14h16c2,0,5,.68,5.73-0.94A2,2,0,0,0,526.72,319.25Z" fill="#fff"/><path d="M451.82,158.33a19.39,19.39,0,0,0-15.89,12.1c-4.57,10.76,4.09,24.06,6.59,26s8.49,9.9,25.71,11c12,0.75,22.69-4,28.87-10.55,7.55-8,13.29-27.29,8.23-39.59-8.93-21.72-28.84-29.69-29.49-30-10.64-5.15-22.25-7.08-40.38-1.74-13.33,3.93-21,11.73-25.21,18.15-3.4,4.89-8.7,12.55-11.14,25-1.46,7.45-1.7,12.83-2,21.18a11.6,11.6,0,0,0-.24,2.45V241.2a28.74,28.74,0,0,0,0,3.14v0.17h0c0.5,4.14-.14,10.35,0,16.62,0,5.54,0,11.5-.13,17.85V277.9s-5-9.74-8.25-16.77c-2.3-5.68-7.71-16.9-7.71-16.9s-4.33-7.7-6-10.82l-2.57-5.55c-0.68-1.62-1.76-2.84-2.43-4.46-1.63-4.33-4.74-4.6-9.06-4.6H340.53c-2,0-3.92-.41-5.54.94-1.76,1.63-1.22,3.92-1.49,6.08-0.27,5.55,1,11.22.68,16.9-0.14,5.41-.14,11-0.14,16.5,0,3.38,0,6.89.14,10.41,0.13,7.71.54,14.19,0.54,23.39,0,4.19.27,8.51,0.14,12.7-0.14,2.43-.27,4.73-0.27,7.17,0.13,1.49-.27,3,0.41,4.33,1.76,3.78,7.17,3.11,10.55,3.11h8.92c2.16,0,5,.27,6.89-1.08,2.7-1.89,3.24-5,2.7-8.11a45,45,0,0,1-.81-7.43c-0.27-6.49-.68-13-0.81-19.47-0.14-6.76,0-13.52-.41-19.74v-7.85c3.39,6.63,7.57,14.74,11.36,21.23,4.73,7.3,7.84,14.19,12.17,21.49,2,4.06,11.22,19.6,11.36,19.6,2,1.35,4.33,1.35,6.35,1.35h6.35c2.57,0,5.28-.13,7.84-0.13s5.13-.55,6.08-3.24,0.81-6.49.81-9.46v-0.67c0-4.46-.68-8.93-0.68-13.25v-26c0-8.25.14-8.15,0.41-16.4,0-2.3.14-4.27,0.27-6.71,0.06-1.87.09-28.09,0-36.42,1.06-11.62,1.28-35.46,7.08-45.08a24.81,24.81,0,0,1,14-10.8c8.68-2,24.74-4.22,29.45,12,0,0,2.06,8.32-2.08,11.91a10.47,10.47,0,0,1-13.68-.93c-3.5-3.3-4.61-10.94-4.79-11.8,0-.48-0.12-1.4-0.23-2.5S453.33,158,451.82,158.33Z" fill="#fff"/><g id="GREY_HIGHLIGHTS" data-name="GREY HIGHLIGHTS"><path d="M691.09,108.88c-0.8,1.35-1.84,3-1.63,4.68a0.45,0.45,0,0,1-.73.35c-1.91-1.55-1.53-4.52-.72-6.55a6.75,6.75,0,0,1,.68-1.5,5.87,5.87,0,0,0,.87-2,10.93,10.93,0,0,0,.1-1.81,3.33,3.33,0,0,0-.1-0.79,1.08,1.08,0,0,0-.22-0.49,0.42,0.42,0,0,1-.19-0.22,1.15,1.15,0,0,0-.5-0.38,0.39,0.39,0,0,1,0-.66,1.57,1.57,0,0,1,1.7.29,4.13,4.13,0,0,1,2,1.87,4.5,4.5,0,0,1,.49,3.43A11.94,11.94,0,0,1,691.09,108.88Z" fill="#e6e7e7"/><path d="M701.05,122.64c-0.11.18-.31,0.3-0.42,0.5a5.43,5.43,0,0,0-.29.61,11.71,11.71,0,0,1-.54,1.13,5.06,5.06,0,0,0-.52,1.27,8.13,8.13,0,0,1-.57,1.21,7.11,7.11,0,0,0-.58,2.84c-0.08,1.06-.08,2.06-0.06,3.12a11.17,11.17,0,0,0,.49,2.63c0.13,0.53.57,1.44,0,1.84a1,1,0,0,1-1.28-.5c-0.21-.3-0.36-0.63-0.56-0.94a6.56,6.56,0,0,1-.48-1.42,9.1,9.1,0,0,1-.51-1.29,12.86,12.86,0,0,0-.45-1.63,10.83,10.83,0,0,1-.62-2.61,17.23,17.23,0,0,1,.46-5.92,22.9,22.9,0,0,1,.85-2.61c0.36-.9.92-1.65,1.35-2.5a8.27,8.27,0,0,1,1.74-2.09c0.8-.74,1.61-1.45,2.41-2.19s1.57-1.27,2.34-1.93a24.42,24.42,0,0,1,2.53-2,56.31,56.31,0,0,0,5-3.16c0.48-.4.94-0.84,1.39-1.27a2.47,2.47,0,0,0,.73-1.3,12.45,12.45,0,0,0,.55-1.63,2.31,2.31,0,0,0-.21-1.57,1.08,1.08,0,0,1-.31-1.5l0-.05a0.29,0.29,0,0,1,.24-0.24c1.45-.27,2.79,1.31,3.29,2.49a5.76,5.76,0,0,1,.64,2.35,8.61,8.61,0,0,1-.73,2.58,6.25,6.25,0,0,1-1.36,2.21,27.44,27.44,0,0,0-1.91,2.13,10.58,10.58,0,0,1-2,1.7c-0.87.68-1.78,1.29-2.64,2-0.39.3-.82,0.48-1.19,0.8s-0.73.59-1.07,0.92a8.58,8.58,0,0,1-.92.82c-0.47.33-.75,0.83-1.18,1.17a15.3,15.3,0,0,0-1.66,1.55A12,12,0,0,0,701.05,122.64Z" fill="#e6e7e7"/><path d="M520.22,132.14a3.74,3.74,0,0,1-2.31-.72,22.63,22.63,0,0,1-4.37-4.39c-1.22-1.62-2.43-3.27-3.71-4.85a19.06,19.06,0,0,0-2.22-2.17c-0.85-.74-1.76-1.36-2.62-2.09a20.7,20.7,0,0,0-2.56-1.81c-0.48-.31-1-0.59-1.48-0.92-0.15-.1-0.31-0.19-0.47-0.28l-0.13-.14h0v0.07a0.28,0.28,0,0,1-.19-0.17l-0.08-.07a0.28,0.28,0,0,1,0-.37,0.75,0.75,0,0,1,.45-1l0.19,0a2.47,2.47,0,0,1,.43,0l0.22-.08a4.24,4.24,0,0,0,.35-1.08,4.34,4.34,0,0,0-.31-2.85,13.8,13.8,0,0,0-3-4.31,9.72,9.72,0,0,0-1.88-1.55,9.55,9.55,0,0,1-1.62-1.44c-0.94-.92-1.74-2.7-1-4a3.89,3.89,0,0,1,3.61-1.52,4.15,4.15,0,0,1,2.07.58,12.68,12.68,0,0,0,1.19.77,6.77,6.77,0,0,0,1.17.34c0.63,0.12,3-.24,2.76,1.07a1.23,1.23,0,0,1-1,1h-0.15a2.36,2.36,0,0,0-.49.6,5.06,5.06,0,0,0-.76,2.23c-0.12,1.5.65,2.84,1.23,4.19a6.87,6.87,0,0,1,.54,4.6,3.6,3.6,0,0,1-1.18,1.69,5.9,5.9,0,0,1,.65.28,16.82,16.82,0,0,1,2.55,1.35,18.09,18.09,0,0,1,2.39,2,16.65,16.65,0,0,1,2.08,2.32c0.6,0.9,1.21,1.8,1.78,2.71a18.72,18.72,0,0,0,3.94,5.07c0.74,0.56,1.43,1.12,2.22,1.62a10.06,10.06,0,0,1,1.23,1,13.57,13.57,0,0,1,1.23.93A0.92,0.92,0,0,1,520.22,132.14Z" fill="#e6e7e7"/><path d="M672.35,176a11.92,11.92,0,0,1,.76-1.72c0.27-.55.65-1,0.93-1.55a7,7,0,0,1,.42-0.69,7.32,7.32,0,0,0,.64-0.88,11.51,11.51,0,0,1,1-1.34c0.41-.55.85-1.09,1.3-1.61s0.79-.9,1.14-1.38,0.9-1.06,1.36-1.57c0.92-1.05,1.93-2,2.9-3a40.24,40.24,0,0,1,6.2-5.42,30.22,30.22,0,0,1,7.09-3.78,16.73,16.73,0,0,1,2.45-.78c0.87-.15,1.72-0.42,2.6-0.51a26,26,0,0,1,4.4,0c0.89,0.07,1.76.28,2.65,0.33a17.21,17.21,0,0,0,2.48.1,11.16,11.16,0,0,0,1.14-.16,2.44,2.44,0,0,0,1-.43,1.63,1.63,0,0,0,.68-1.13,7.53,7.53,0,0,0-.12-1,0.39,0.39,0,0,1,.25-0.4,0.51,0.51,0,0,1,.51.13,0.12,0.12,0,0,1,.06.05,2.71,2.71,0,0,1,.48,2.86,3.62,3.62,0,0,1-2.8,2,15,15,0,0,1-4-.18,14.93,14.93,0,0,0-4.16.21c-1.14.28-2.24,0.57-3.36,0.93a37.12,37.12,0,0,0-3.4,1.5,21.65,21.65,0,0,0-3.66,2.18c-1.11.77-2.15,1.61-3.17,2.46a15.14,15.14,0,0,0-1.42,1.34c-0.42.46-1,.88-1.49,1.35a35.92,35.92,0,0,0-2.65,2.87c-1.68,2-2.72,4.54-4.5,6.48a14,14,0,0,0-1.16,1.34,10.36,10.36,0,0,1-1.31,1.16,16.8,16.8,0,0,1-3.09,2.33,2.72,2.72,0,0,1-1.5.55,1,1,0,0,1-.9-0.9A3.65,3.65,0,0,1,672.35,176Z" fill="#e6e7e7"/></g><path d="M542.68,283.55c-0.26,15.25.3,28.94,12.26,38.41,10.6,8.4,23.88,8.73,42.24,11.23-18.36-6.44-27-7.92-32.57-22.51-3-7.84-2.92-26.86-3.12-35.25q-0.82-33.74.32-67.49c-2.74-.45-14.5-6.61-18.7-12.28Z" fill="#e6e7e7"/></svg>